<?xml version="1.0" encoding="UTF-8" standalone="no"?>
<!-- Created with Inkscape (http://www.inkscape.org/) -->

<svg
   version="1.1"
   id="svg1"
   width="1024"
   height="1024"
   viewBox="0 0 1024 1024"
   xmlns:xlink="http://www.w3.org/1999/xlink"
   xmlns="http://www.w3.org/2000/svg"
   xmlns:svg="http://www.w3.org/2000/svg"
   xmlns:rdf="http://www.w3.org/1999/02/22-rdf-syntax-ns#"
   xmlns:cc="http://creativecommons.org/ns#"
   xmlns:dc="http://purl.org/dc/elements/1.1/">
  <title
     id="title209">LMM</title>
  <defs
     id="defs1">
    <linearGradient
       id="linearGradient207">
      <stop
         style="stop-color:#acb3bb;stop-opacity:1;"
         offset="0"
         id="stop207" />
      <stop
         style="stop-color:#acb3bb;stop-opacity:0;"
         offset="1"
         id="stop208" />
    </linearGradient>
    <linearGradient
       id="linearGradient204">
      <stop
         style="stop-color:#9ea4b0;stop-opacity:1;"
         offset="0"
         id="stop204" />
      <stop
         style="stop-color:#acb3bb;stop-opacity:1;"
         offset="1"
         id="stop205" />
    </linearGradient>
    <linearGradient
       id="linearGradient188">
      <stop
         style="stop-color:#000000;stop-opacity:1;"
         offset="0"
         id="stop188" />
      <stop
         style="stop-color:#560000;stop-opacity:1;"
         offset="1"
         id="stop189" />
    </linearGradient>
    <linearGradient
       xlink:href="#linearGradient188"
       id="linearGradient189"
       x1="457.22766"
       y1="464.16196"
       x2="460.66135"
       y2="498.00034"
       gradientUnits="userSpaceOnUse"
       gradientTransform="matrix(0.94646148,0,0,0.97559559,24.224264,10.194729)" />
    <linearGradient
       xlink:href="#linearGradient188"
       id="linearGradient190"
       gradientUnits="userSpaceOnUse"
       x1="457.22766"
       y1="464.16196"
       x2="460.66135"
       y2="498.00034"
       gradientTransform="matrix(0.92944816,0,0,0.95725504,175.85684,5.8820566)" />
    <linearGradient
       xlink:href="#linearGradient204"
       id="linearGradient205"
       x1="636.4339"
       y1="828.50079"
       x2="631.73358"
       y2="688.12469"
       gradientUnits="userSpaceOnUse" />
    <linearGradient
       xlink:href="#linearGradient207"
       id="linearGradient208"
       x1="530.77264"
       y1="851.78137"
       x2="502.21988"
       y2="754.74536"
       gradientUnits="userSpaceOnUse" />
  </defs>
  <g
     id="layer1"
     style="display:inline"
     transform="matrix(1.6003863,0,0,1.6003863,-280.88862,-366.38979)">
    <g
       id="layer5"
       style="display:none">
      <g
         id="g201"
         style="display:inline">
        <path
           style="display:inline;fill:#fefefe;fill-opacity:1;stroke-width:0.899475"
           d="m 543.73261,740.27995 c -6.43124,-4.68153 -14.93215,-9.1648 -16.74549,-11.40564 l -4.49338,-4.42385 10.64204,-8.51028 c 5.63508,-4.50628 14.9368,-9.86104 19.14185,-12.93236 9.17914,-6.70434 8.59559,-6.72499 24.06095,0.85143 8.40547,4.1178 11.01857,5.80851 11.01857,7.12915 0,3.43684 -27.47707,40.05627 -30.26857,40.02473 -0.51331,-0.006 -6.92472,-6.05165 -13.35597,-10.73318 z"
           id="path200" />
        <path
           style="display:inline;fill:#fefefe;fill-opacity:1;stroke-width:0.899475"
           d="m 455.67437,739.1542 c -9.73271,-11.70747 -22.00802,-27.51756 -22.00802,-28.51803 0,-0.8444 8.65544,-4.71124 18.57608,-9.68352 6.10251,-3.05861 7.86265,-3.5834 9.71936,-2.89781 4.01005,1.48071 37.51061,24.51182 37.53151,25.97481 0.0247,1.73079 -4.02194,5.98584 -13.32708,12.93595 -10.79499,8.06288 -18.8985,13.02482 -20.43627,13.02482 -0.75622,0 -5.42884,-5.27072 -10.05558,-10.83622 z"
           id="path199" />
        <path
           style="display:inline;fill:#fefefe;fill-opacity:1;stroke-width:0.899475"
           d="m 356.87223,856.81513 c -4.3946,-0.93313 -3.42976,-3.04218 -2.90773,-8.61024 0.23191,-2.47356 -0.63175,-9.68119 -0.0916,-16.11244 1.22218,-14.55253 4.19704,-28.8119 7.72293,-42.77796 7.97066,-31.5718 20.4467,-53.62875 39.92632,-66.60092 6.60253,-4.39685 17.87613,-7.84876 20.5332,-7.84876 1.71618,0 11.31423,12.86561 31.63974,38.37144 5.19446,6.51838 8.81267,12.5819 9.57944,12.61198 0.76675,0.0301 3.80248,-1.69669 6.74606,-3.83728 8.00592,-5.82196 21.2831,-14.09752 22.61785,-14.09752 1.6582,0 2.4526,0.82913 -0.58446,10.31021 -1.48413,4.63316 -3.63906,8.98981 -3.63906,9.4659 0,1.08707 5.10181,0.58198 8.02108,2.78408 l 1.44501,-0.34253 2.65997,-7.47906 c 7.61014,-21.39749 9.69361,-23.01388 10.46413,-21.79803 0.62363,0.98405 0.77637,0.95833 0.80975,-0.13637 0.0756,-2.4789 2.76645,1.66985 7.90952,16.35792 2.73448,7.80939 4.808,12.912 5.15078,13.24466 0.814,0.78996 5.35335,-1.93942 7.00524,-3.59131 1.11264,-1.11264 1.07862,-0.24611 -0.85419,-6.7841 -3.06754,-10.37635 -2.27141,-12.74032 -1.30756,-13.33601 0.89418,-0.55263 11.42714,6.37832 22.81542,15.0131 3.85136,2.92016 7.3245,5.17921 7.71807,5.02009 0.39357,-0.15912 9.73536,-11.56282 20.75952,-25.34155 23.15938,-28.94613 20.05497,-27.10458 33.1695,-19.67636 23.97975,13.58241 37.19076,33.54735 46.31592,69.99423 4.42783,17.6853 5.91072,27.42934 6.90745,45.38903 0.47907,8.63222 0.87877,16.40327 0.88822,17.26901 0.0151,1.38716 -0.9709,1.5737 -8.30298,1.57079 -4.57608,-0.002 -14.09335,-0.26739 -21.14949,-0.59019 l -12.82934,-0.58689 -0.56362,-3.52469 -0.56362,-3.52468 -4.1777,4.11487 -4.17769,4.11488 H 510.9799 l -106.57141,0.82896 -4.31131,-3.33098 -2.00293,-3.92532 -0.35484,2.10482 c -0.22017,1.30599 0.24174,3.41803 -0.43904,3.98302 -1.51305,1.25571 -35.33462,2.38573 -40.42814,1.3042 z"
           id="path198" />
      </g>
      <g
         id="g202"
         style="display:inline">
        <path
           style="fill:#afbcc2;fill-opacity:1"
           d="m 436.10235,708.67594 c 0,0 13.10266,6.76571 26.65101,8.51547 11.96062,1.1353 16.64391,0.3543 27.22003,-1.3645 l -28.95674,-20.08788 z"
           id="path201" />
        <path
           style="display:inline;fill:#afbcc2;fill-opacity:1"
           d="m 532.43735,716.50565 c 4.33838,1.40412 40.09537,17.21254 40.09537,17.21254 L 589.68533,710.00372 560.38444,694.51 Z"
           id="path202" />
        <path
           style="display:inline;fill:url(#linearGradient208);fill-opacity:1"
           d="m 408.85124,856.93447 c 0,0 -6.70931,-10.63105 -6.02888,-22.98664 l 0.19503,-21.72857 c -0.43292,-1.72329 1.84628,-2.04006 3.24224,0.16149 4.75559,5.25031 9.49876,6.49254 9.49876,6.49254 2.55683,2.14441 45.88695,5.36708 45.88695,5.36708 l 37.91056,2.03603 28.07578,0.22609 c 0,0 37.39689,-2.27175 47.13478,-3.79007 11.09907,-1.31304 32.63261,-8.66707 37.70497,-11.90434 4.5528,-1.71056 9.51118,-29.39441 9.51118,-29.39441 l 1.86832,33.34409 -8.69565,41.13541 z"
           id="path203" />
        <path
           style="display:inline;fill:url(#linearGradient205);fill-opacity:1"
           d="m 463.57442,767.78763 c 1.22888,-0.44974 22.1833,-11.17896 25.60644,-11.46095 2.11444,-0.10373 13.47368,0.96965 13.47368,0.96965 0,0 5.31834,0.75771 8.15237,0.68349 2.5133,-0.1838 8.88517,-1.82277 8.88517,-1.82277 l 10.37273,-0.3451 29.99952,11.65741 41.71429,-41.06603 c 0,0 11.27143,7.31019 15.241,21.22199 0,0 5.52648,18.11236 5.02617,36.07913 1.30932,24.78509 -10.38528,73.50747 -10.38528,73.50747 l 59.49187,-0.94689 -5.97308,-67.71536 -28.33873,-59.08075 -35.51739,-14.35151 -43.31667,45.07772 -44.04089,-28.79813 -50.50763,34.54634 z"
           id="path204" />
      </g>
    </g>
    <g
       id="g184"
       style="display:inline">
      <g
         id="g190">
        <g
           id="layer4"
           style="display:none">
          <path
             style="display:inline;fill:#fefefe;fill-opacity:1;stroke-width:0.899475"
             d="m 612.54245,675.70215 c 0,-1.12873 1.39392,-6.89662 3.09758,-12.81752 5.3993,-18.7646 8.79061,-36.44448 13.45227,-70.13063 4.02195,-29.06349 4.55897,-39.51874 4.57381,-89.04802 0.0133,-44.30522 -1.2187,-76.12669 -3.07638,-79.46245 -0.71651,-1.28661 -1.81161,14.14861 -1.90448,26.84316 -0.082,11.20945 -0.87389,14.77685 -3.35891,15.13159 -2.31216,0.33006 -10.88912,-4.24715 -18.11833,-9.66909 -2.68658,-2.01495 -5.2485,-3.66355 -5.69318,-3.66355 -1.23951,0 0.0875,4.95165 3.95896,14.77242 2.22731,5.65005 3.20442,9.24007 2.66242,9.78206 -1.39935,1.39935 -6.52059,-0.051 -15.34411,-4.34551 -12.76517,-6.21293 -20.46744,-11.59176 -28.8213,-20.12712 -9.48458,-9.69066 -17.83026,-21.35751 -23.06096,-32.23808 -2.19989,-4.57608 -4.23726,-8.32014 -4.52747,-8.32014 -1.46696,0 3.87013,31.13726 7.43672,43.38678 1.25829,4.32163 3.89479,11.98102 5.85887,17.02086 1.96409,5.03985 3.4537,9.66704 3.31024,10.28264 -0.20514,0.88027 -1.01428,0.85824 -3.78932,-0.10317 -5.961,-2.06518 -15.79209,-9.40103 -26.12198,-19.49191 -5.42411,-5.29862 -9.917,-9.5519 -9.98419,-9.45173 -0.0672,0.10016 0.26983,3.7117 0.74896,8.02563 0.47911,4.31393 0.64554,8.43134 0.36984,9.1498 -0.71239,1.85648 -3.08306,1.12786 -15.00291,-4.61109 -9.72999,-4.68463 -10.93451,-5.57361 -20.2936,-14.97755 -16.27714,-16.35515 -21.1464,-26.30607 -26.5049,-54.16599 -3.54058,-18.40814 -3.58938,-18.62738 -4.04521,-18.17155 -0.21206,0.21206 -1.39293,5.82532 -2.62415,12.47392 -1.23122,6.64859 -3.70724,16.74313 -5.50225,22.43231 -4.21914,13.37232 -16.01584,37.43931 -22.90665,46.73296 -7.10931,9.58832 -17.37174,20.30098 -18.67574,19.49507 -2.12594,-1.3139 -2.95315,-8.02575 -3.83893,-31.14851 -0.50222,-13.10984 -1.11392,-24.40972 -1.35935,-25.11084 -1.21973,-3.48436 -2.08722,2.005 -2.97329,18.81452 -2.51407,47.69404 -1.7402,111.35856 1.6728,137.61967 4.22682,32.52293 10.03144,62.90087 15.847,82.93384 4.01562,13.83268 4.0258,13.68746 -0.91215,13.01064 -8.49066,-1.16377 -21.4284,-7.81343 -31.14841,-16.00946 -9.0929,-7.66726 -20.12141,-20.14139 -25.49559,-34.10665 -2.65498,-6.89919 -7.08205,-30.16597 -9.06783,-42.32187 -0.95507,-5.84644 -1.18362,-1.67823 -1.795,11.02905 -1.11012,23.07383 -1.55813,28.10226 -2.37391,26.64455 -2.7721,-7.63967 -4.85639,-15.5252 -7.10413,-23.33447 l -0.1237,-56.37012 c -0.068,-31.00357 -0.37161,-66.28683 -0.67461,-78.40726 -0.61171,-24.4694 -0.77793,-24.55104 -4.57805,-2.24868 -6.4467,37.83468 -7.94016,80.51454 -3.68254,105.23857 1.0223,5.93653 2.48895,18.07944 3.25921,26.98424 1.68465,19.47584 2.63052,26.72538 4.5919,35.19426 0.81663,3.52608 1.22806,7.08006 0.91429,7.89774 -0.51817,1.35033 -0.90647,1.31527 -4.23409,-0.38235 -9.49121,-4.84206 -19.85648,-18.42366 -23.50155,-32.67575 -5.88875,-23.0248 -4.45439,-67.33862 3.79904,-129.3158 10.48768,-78.75475 22.34832,-117.58419 49.61817,-154.18286 14.89816,-19.99472 38.61804,-40.08164 58.59756,-51.76774 14.60257,-8.54111 39.5332,-17.70312 60.5925,-22.42634 9.72109,-2.18026 13.6664,-3.30018 37.05426,-3.30018 27.33331,0 33.61677,0.92707 52.69453,6.48535 26.93745,7.8482 40.94895,16.94622 62.49982,32.81386 35.70133,26.28644 61.72602,65.80841 74.6767,113.40654 11.07296,40.69684 21.73274,123.22999 21.88834,169.47008 0.0977,29.02895 -1.80481,39.52951 -9.78068,53.98325 -5.28413,9.57582 -15.57474,19.32396 -20.39931,19.32396 -2.04548,0 -2.02174,-0.90202 0.21117,-8.02597 2.50657,-7.99701 4.11702,-18.78606 6.25351,-41.8949 1.00623,-10.88364 2.30781,-23.22894 2.8924,-27.43398 1.76125,-12.66876 1.47215,-59.13641 -0.46448,-74.65642 -2.18875,-17.54065 -6.6424,-43.75749 -7.75881,-45.67306 -0.61035,-1.04726 -0.91474,20.16745 -0.93924,65.46151 -0.0343,63.33444 -0.67271,86.0206 -2.77185,98.4925 -1.36173,8.09067 -4.45016,17.89294 -5.35095,16.98329 -0.43176,-0.436 -1.22971,-9.8959 -1.77323,-21.02199 -0.54352,-11.12609 -1.33908,-20.58012 -1.76791,-21.00896 -0.43994,-0.43994 -1.16935,1.31992 -1.67392,4.03871 -0.49183,2.65012 -1.79087,9.67557 -2.88675,15.6121 -5.13906,27.83886 -15.71225,49.21559 -30.6975,62.06378 -5.9715,5.1199 -18.45277,12.14087 -26.35334,14.8243 -6.79106,2.30658 -7.69575,2.27881 -7.69575,-0.23625 z"
             id="path191" />
          <g
             id="layer3"
             style="display:inline">
            <path
               style="display:inline;fill:#d1d1cf;fill-opacity:1"
               d="m 644.56522,662.75384 c -7.23106,9.83789 -31.24306,17.72443 -32.4207,15.99586 -5.79379,-0.67018 10.70776,-48.83134 10.70776,-48.83134 l 8.62095,-63.56419 2.33616,-72.67356 -1.85181,-53.83911 -4.03929,-34.46025 -8.1124,-40.13381 c 0,0 24.86732,18.10369 24.66089,19.2052 -0.20642,1.10151 18.52452,32.56351 18.52452,32.56351 11.40373,12.10435 -10.2385,95.19751 -0.64844,117.72671 9.59006,22.52919 -17.77764,128.01098 -17.77764,128.01098 z"
               id="path193" />
            <path
               style="display:inline;fill:#9c9faf;fill-opacity:1"
               d="m 640.69097,666.55836 c 20.24697,-85.00741 19.97559,-190.27846 19.60095,-220.8123 0.9188,-30.93263 -12.42137,-54.22499 -17.3676,-60.38253 -10.81171,-11.35719 -24.93892,-17.60397 -23.40567,-24.67056 2.15426,-3.91983 3.81438,-6.14737 3.75953,-11.48807 -1.61844,-18.50599 -2.71095,-28.14658 -9.93222,-44.61404 -8.2118,-15.18012 -26.59841,-33.70484 -26.59841,-33.70484 0,0 -19.86283,-17.40098 -20.39348,-19.94814 -1.48924,-1.15908 24.82936,4.00793 47.31184,18.48386 l 33.98592,26.53978 32.62881,40.29191 27.76251,71.72347 10.92019,85.162 8.06564,64.76134 c 0,0 -4.48014,57.8657 -9.61407,62.76905 -11.74808,11.22043 -23.25389,19.08403 -23.25389,19.08403 l -43.9302,20.89088 c 0,0 -7.29749,5.97037 -9.33569,5.78218 z"
               id="path192" />
            <path
               style="display:inline;fill:#bababa;fill-opacity:1"
               d="m 331.2795,444.73726 c -0.63878,-2.10102 0.0781,-9.85483 -2.44612,-4.65938 -5.57554,13.06361 -6.56789,27.50956 -8.63437,41.42852 -3.8004,28.34413 -4.46825,57.28863 -12.05192,84.99747 -2.06184,6.92236 -4.83399,13.67635 -8.70568,19.79295 0.66858,10.79666 2.36999,21.71305 7.98422,31.14463 3.07161,5.62386 5.13402,12.14034 11.02748,15.51419 3.67082,1.14872 10.21793,10.11648 12.50032,4.98863 2.65929,-5.58133 5.72715,-11.05059 8.13057,-16.7021 0.97592,-14.33543 2.29978,-28.66703 3.05674,-43.00486 -1.81235,-38.03822 -5.32521,-75.96804 -9.78043,-113.78125 -0.63886,-6.55353 -1.07442,-13.1318 -1.08081,-19.7188 z"
               id="path195" />
            <path
               style="display:inline;fill:#bababa;fill-opacity:1"
               d="m 620.28504,362.25608 c -3.6591,-13.30683 -21.91845,-7.18235 -14.0875,5.56292 2.34404,12.26887 3.41528,30.93162 1.17044,39.49985 -5.40848,-10.09235 -14.21865,-29.49147 -19.94447,-32.52236 1.69421,8.14284 4.65036,35.3023 -9.00542,26.0757 -2.89957,-17.26497 -9.5006,-33.62616 -16.89976,-49.39971 2.04795,18.05944 4.68397,36.54501 2.29824,54.64972 -2.84236,17.64208 -23.98986,10.54237 -28.37248,-2.17244 -2.31384,-5.11424 -6.05479,-24.70583 -7.00685,-20.74689 2.621,8.57013 -0.0385,34.16536 -11.61888,18.30175 -8.73429,-12.94368 -0.8937,15.60959 -8.49869,20.79982 -15.47777,10.75155 -24.43152,-10.73125 -26.69708,-22.9896 -4.90839,-16.87629 -0.94765,19.73411 -13.18248,19.51751 -15.36259,-0.55114 -14.38112,-20.57704 -16.06657,-31.80602 -2.72809,-10.11014 -3.42293,-30.21716 -4.58003,-35.00606 -4.25751,16.88731 -7.89997,34.00889 -13.75017,50.42697 -2.74476,18.61134 -26.34103,12.93448 -21.42703,-4.61619 2.86236,-14.31686 -1.78549,-5.41053 -7.22145,-0.0967 -15.53339,-5.05763 1.75156,-28.84492 -0.62673,-41.37976 -13.8899,5.04644 -16.01813,23.20484 -18.4442,36.15766 -9.26455,46.58299 -12.25354,94.06529 -13.25544,141.46572 -1.1124,35.23094 -0.58831,70.46946 -1.28676,105.69428 -0.45181,11.41212 1.25395,25.52592 13.99043,29.40774 8.22392,3.23725 16.33778,9.66969 25.42887,8.41297 3.1344,-10.52512 -5.83689,-21.73367 -6.9495,-32.57078 -4.47399,-36.87707 -9.49454,-73.7196 -13.62764,-110.6182 0.21119,-28.99674 -0.63544,-58.02861 0.254,-87.00283 0.52769,-7.72851 1.05537,-15.45702 1.58306,-23.18553 l 2.9373,54.33401 c 7.77792,12.49078 18.04157,-13.43005 24.91545,-19.17155 11.68049,-15.96534 18.19597,-34.83393 27.72055,-52.09653 2.62466,-8.80001 4.11749,2.3429 6.04135,5.89089 3.56842,8.23969 5.67455,17.38842 10.1581,25.05923 7.57118,7.81784 14.65174,16.29487 22.52257,23.71013 12.17059,5.59815 23.56989,13.29988 37.04726,15.33397 10.59086,2.2434 21.06485,5.99163 31.72727,7.31384 l 59.64683,-5.27763 c 4.8297,-3.8377 9.6594,-7.67541 14.4891,-11.51311 0.14241,-16.88198 1.27672,-33.79646 0.9585,-50.61609 -2.01494,-18.50608 -6.07331,-36.72957 -10.34019,-54.8267 z"
               id="path194" />
            <path
               style="display:inline;fill:#6b7380;fill-opacity:1;stroke-width:0.318012"
               d="m 430.1118,674.84221 c -3.54827,0.33972 -6.11208,-3.0506 -6.87522,-6.16717 -4.39661,-11.57559 -7.81814,-23.53606 -10.21968,-35.6791 -1.06818,-2.52483 -0.37322,-7.58838 3.39464,-6.10132 2.7201,0.98547 4.74708,3.18263 7.28087,4.52245 11.05991,7.17701 22.54142,13.98083 35.07083,18.25634 2.42997,0.71049 5.69215,2.01528 5.66104,5.03056 -0.83622,4.2856 -0.58761,8.67823 -1.01356,13.00485 -0.2555,2.89816 -3.29096,4.04458 -5.83585,3.87898 -2.87262,-0.0147 -6.63627,0.43731 -8.02287,-2.81028 -1.31335,-2.6939 -1.31621,-5.78319 -2.29686,-8.59912 -0.66578,-2.3955 -1.46337,-4.76031 -2.50345,-7.02105 -2.72162,2.28995 -1.09083,6.11771 -1.80948,9.12277 -0.42381,3.66654 -0.26127,7.3651 -0.47673,11.0439 -1.80544,2.54947 -5.23253,1.61901 -7.8793,1.7143 -1.4922,0.13292 -2.9918,-0.027 -4.47438,-0.19611 z"
               id="path196" />
            <path
               style="display:inline;fill:#6b7380;fill-opacity:1;stroke-width:0.318012"
               d="m 583.64317,675.02609 c -2.79872,-1.08881 -2.53796,-4.48488 -2.8517,-6.94559 -0.54524,-5.02664 -0.8852,-10.07699 -1.51916,-15.09259 -0.97884,-2.50198 -2.16188,1.82045 -2.44503,2.82971 -1.4318,4.74187 -2.42338,9.60577 -3.74768,14.37259 -0.46415,0.7562 -0.88628,1.77965 -1.95651,1.40145 -3.2044,-0.14061 -6.53328,0.10752 -9.59409,-0.95184 -2.0705,-1.51905 -1.76725,-4.47218 -2.19335,-6.74781 -0.41104,-3.95299 -0.72984,-7.91538 -1.18273,-11.86409 14.29827,-5.93471 28.81225,-11.75881 41.70516,-20.45618 2.57275,-1.71904 4.991,-3.83503 7.96463,-4.82883 2.79764,0.21996 1.65724,4.21375 1.63474,6.14692 -1.46919,10.72069 -3.80995,21.35526 -7.32027,31.59791 -1.30356,3.35924 -2.6164,6.89325 -5.08869,9.58196 -2.39106,1.48621 -5.50995,0.7298 -8.20777,1.06818 -1.73011,0.003 -3.47742,0.10859 -5.19755,-0.11179 z"
               id="path197" />
          </g>
        </g>
        <path
           style="display:none;fill:#fee1cf;fill-opacity:1;stroke-width:0.899475"
           d="m 494.46386,645.27514 c -15.81539,-1.15022 -33.44805,-6.69452 -50.47051,-15.36736 -17.63132,-8.98304 -34.06793,-23.28924 -36.47075,-31.30912 -3.05066,-10.18219 -8.33921,-47.41624 -7.83783,-72.75756 l 0.3151,-15.92631 3.31255,-3.89282 c 3.33926,-3.92421 11.03568,-5.84251 12.86922,-5.84251 1.49227,0 1.03479,6.95308 1.05074,15.8374 0.0198,11.02731 2.50446,18.19829 9.08601,23.99161 7.00834,6.16898 15.38213,6.13099 23.34146,1.46651 9.21925,-5.40284 11.74459,-13.33126 12.4125,-30.60765 0.24385,-6.30757 0.81257,-12.63611 1.02113,-12.63611 0.20857,0 3.14863,1.84854 5.12473,2.85667 4.08751,2.08529 4.51494,2.07487 4.51494,-1.16494 0,-2.21683 -4.58675,-6.04724 -8.09078,-8.0199 -2.49457,-1.40436 1.11083,-5.50318 3.83763,-4.62864 4.03345,1.29361 6.23809,2.58877 6.23809,1.58071 0,-2.83374 -6.36595,-5.61052 -16.32435,-8.74506 -7.72669,-2.43207 -22.77175,-3.14675 -33.10733,-0.99053 -3.67596,0.76688 -7.17929,2.00596 -7.73077,1.52613 -1.13023,-2.16594 0.82936,-4.53205 5.91661,-10.22991 3.40967,-3.81893 8.26619,-9.67622 10.05164,-13.62817 3.95545,-8.75511 3.70253,-8.63297 18.06442,-8.56259 l 6.8078,-1.08523 5.96237,7.37205 c 15.89284,19.65037 43.86426,29.45987 60.95818,29.95022 6.61123,0.18965 7.58595,2.6216 14.53259,5.16295 12.76623,4.67039 12.64082,6.48032 12.64082,8.9837 0,2.16452 -0.81929,2.92787 0.46216,2.43212 0.86575,-0.33493 5.33933,-2.72107 6.66135,-2.98793 2.70297,-0.54562 0.33842,0.24916 2.2701,17.6847 1.91881,17.31921 9.57744,26.87111 21.13885,26.81181 5.25305,-0.0269 9.99793,-2.37793 14.14711,-6.97959 5.46507,-6.06104 7.4723,-12.56646 8.65486,-24.46873 0.87479,-8.80457 1.40334,-10.783 2.79817,-11.05138 1.76621,-0.33984 9.76722,1.72226 13.35606,7.91995 l 2.21875,3.83162 -0.2109,12.36612 c -0.36068,21.14927 -2.72559,40.63885 -5.97994,58.46308 l -2.56283,17.55321 -8.60319,10.01298 c -19.07652,22.20257 -50.91034,33.1001 -84.9732,35.55592 -8.80695,1.01228 -18.62413,0.16109 -27.40356,-0.47742 z m 21.99326,-48.98713 c 7.31156,2.25831 10.23649,2.2026 14.85239,-2.55024 3.63046,-3.73817 4.46239,-5.84324 2.84875,-7.78755 -1.99758,-2.40694 -3.06834,-1.22769 -7.21841,2.15004 l -4.64096,3.77727 -3.3386,-2.26864 c -4.26963,-2.9013 -10.15933,-2.93552 -14.15119,-0.29182 -3.60357,2.38655 -5.51584,2.21997 -9.90349,-1.5357 -2.92939,-2.50745 -2.30456,-2.91882 -4.02594,-2.48678 -5.0386,1.26461 -1.44742,9.33355 5.23606,12.24469 3.80632,1.65793 5.25728,2.20356 9.26065,-0.83153 3.49161,-3.27852 6.61474,-1.748 11.08074,-0.41974 z"
           id="path190" />
        <path
           style="display:none;fill:#a16f7a;fill-opacity:1;stroke-width:0.449737"
           d="m 507.92121,713.86057 c -4.30976,-2.52221 -8.74554,-5.59446 -22.88369,-15.57726 l -12.77466,-9.02005 0.47363,-2.20268 c 0.52941,-2.46207 4.45543,-23.94594 5.29089,-27.66061 0.67014,-2.9796 0.73581,-3.32706 2.16026,-3.32706 0.7982,0 4.24962,0.45053 6.94565,0.94587 12.89817,2.36972 32.11897,2.42899 46.85322,0.0854 2.99989,-0.47715 6.51515,-1.11288 7.81057,-1.15817 l 2.7136,-0.12082 0.61804,2.33562 c 1.51411,5.72194 4.09916,21.47301 4.74364,27.44759 l 0.47398,4.39393 -8.92284,5.85219 c -17.37541,11.39593 -29.07508,19.75568 -30.09363,19.75568 -0.13277,0 -1.80478,-0.81098 -3.40866,-1.74963 z"
           id="path184" />
        <path
           style="display:none;fill:#967d80;fill-opacity:1;stroke-width:0.318012"
           d="m 445.04492,439.17776 c -0.65895,-0.28585 -0.74094,-0.71781 -0.83005,-2.0827 -0.13375,-2.0486 0.51911,-3.708 1.66137,-4.93079 1.14702,-1.22789 2.25844,-1.15994 3.63797,0.0513 1.65949,1.45705 2.74216,6.07212 1.65114,6.74641 -1.86279,0.72227 -4.2996,1.00561 -6.12043,0.21574 z"
           id="path185" />
        <path
           style="display:inline;fill:#000000;fill-opacity:1;stroke-width:0.899475"
           d="m 344.08581,865.46052 c -2.25133,-2.95164 -2.29433,-3.29405 -2.28708,-18.21437 0.008,-17.11733 0.81363,-25.79896 4.08052,-43.98937 6.21318,-34.59559 18.55886,-61.75629 35.63219,-78.39138 10.70693,-10.43212 16.5099,-13.87476 43.46935,-25.78845 12.49244,-5.52056 15.18855,-7.69813 12.01853,-9.70707 -2.13933,-1.35575 -8.85838,-0.96027 -8.85838,0.52141 0,2.53949 -3.52536,3.41843 -11.071,2.76021 -14.18873,-1.2377 -28.0448,-6.46325 -42.07606,-15.86818 -4.90208,-3.28579 -20.60989,-19.10235 -20.60989,-20.75258 0,-0.45579 -3.54168,-0.76377 -7.8704,-0.68437 -27.47903,0.50399 -50.1436,-19.69614 -57.45071,-51.2038 -5.352,-23.0774 -5.06241,-52.96251 1.04275,-107.60675 8.16982,-73.12401 17.34055,-112.65768 34.326,-147.97437 27.88572,-57.98089 77.09965,-98.05296 139.68831,-113.74014 17.8251,-4.46768 29.18415,-5.87929 47.30973,-5.87929 36.29331,0 74.6679,10.76094 106.25894,29.79698 21.08013,12.70239 43.95945,33.27724 58.23252,52.36716 17.55527,23.4798 31.17127,52.01536 39.98068,83.78899 13.13885,47.38901 24.69247,153.37505 20.7905,190.71967 -2.69926,25.83375 -9.43383,42.16227 -22.66399,54.95074 -10.09276,9.75581 -22.69921,14.72759 -37.34332,14.72759 h -7.99637 l -1.70586,2.92329 c -3.06634,5.25474 -13.36581,15.17739 -21.16889,20.3944 -8.9052,5.95387 -19.4652,10.17752 -31.48162,12.59159 -13.421,2.69626 -15.70232,2.67299 -18.69128,-0.19062 -3.65148,-3.49833 -11.89087,-3.3667 -11.89087,0.18998 0,1.72599 1.54806,2.55717 18.72022,10.05128 22.42791,9.78777 32.26096,16.11209 42.87429,27.57547 6.04481,6.52896 13.11507,17.75751 18.19818,28.90123 10.35721,22.70613 18.25008,62.78141 18.25008,92.66297 v 11.41455 l -3.41095,3.33071 -3.41096,3.33072 H 510.67562 346.38027 Z m 52.84976,-10.29223 c 0.9281,-1.02554 1.25978,-2.40911 0.91642,-3.82277 -0.49463,-2.03652 -0.25264,-1.94301 2.9953,1.15751 l 3.53342,3.37304 h 106.5158 106.51582 l 3.85681,-3.78518 3.85682,-3.78518 v 3.2392 c 0,2.12398 0.48985,3.42718 1.42278,3.78518 0.78252,0.30029 10.5604,0.54598 21.72861,0.54598 h 20.30583 l -0.5466,-16.4348 c -0.62172,-18.6934 -2.48823,-30.80906 -7.99851,-51.91883 -8.05714,-30.86673 -20.34434,-50.38501 -39.44542,-62.65927 -10.1442,-6.51862 -17.70863,-9.89594 -19.57714,-8.74068 -0.83852,0.51843 -10.38761,12.11223 -21.22018,25.764 l -19.6956,24.8214 -7.28865,-5.55173 c -4.00877,-3.05345 -10.71029,-7.88799 -14.89229,-10.74341 -6.23151,-4.2548 -7.81425,-4.98106 -8.77075,-4.02455 -1.07557,1.07558 0.365,7.26205 4.71799,20.26122 0.54907,1.63969 -8.76561,5.93892 -9.58184,4.42252 -0.32438,-0.60265 -3.15885,-8.58386 -6.29881,-17.73602 -4.85716,-14.15731 -5.7395,-15.52597 -6.96688,-14.98671 -1.24416,0.54664 -5.5313,13.16276 -6.90729,17.2354 -2.86034,8.41009 -5.46849,15.60369 -5.79587,15.98578 -0.44647,0.52108 -8.21658,-2.17103 -9.67795,-3.35311 -0.11997,-0.097 1.19552,-4.37409 2.92329,-9.50458 3.67363,-10.90853 3.75587,-11.6731 1.25553,-11.6731 -1.58162,0 -16.6513,9.65704 -26.94037,17.26407 -2.49556,1.84505 -2.91745,1.9179 -3.85322,0.66538 -4.2632,-5.70623 -37.68711,-46.62182 -39.21426,-48.0038 -1.88096,-1.70216 -2.02812,-1.70437 -6.61573,-0.0998 -11.45747,4.00739 -25.22384,14.40568 -33.39826,25.22703 -9.22275,12.20914 -14.95495,24.68029 -19.80015,43.07776 -5.13566,19.50038 -7.62298,35.53275 -9.10601,58.69417 -0.90655,14.15817 -2.94501,12.91113 21.10492,12.91113 18.53103,0 20.62683,-0.15351 21.94244,-1.60725 z M 484.13326,738.1007 c 17.58678,-12.88528 17.80221,-13.27563 10.13563,-18.36595 -2.71182,-1.80055 -11.01581,-7.72692 -18.45333,-13.16974 -7.43751,-5.4428 -14.28876,-9.89601 -15.22501,-9.89601 -1.85122,0 -23.09982,11.02269 -25.18547,13.06494 -1.10379,1.08082 -0.35765,2.47056 5.39685,10.0522 3.67275,4.83889 10.66362,13.59725 15.53528,19.46303 7.16253,8.62414 9.22806,10.5909 10.7937,10.27756 1.06488,-0.21312 8.71594,-5.35483 17.00235,-11.42603 z m 79.50255,5.05529 c 6.6365,-7.76603 19.85951,-24.24014 22.6241,-28.18661 3.5713,-5.09805 3.12444,-5.59842 -11.02587,-12.34605 -7.54506,-3.59789 -13.68938,-6.00253 -14.67743,-5.74414 -3.01675,0.7889 -37.15395,27.0349 -36.88083,28.35541 0.33017,1.59632 31.28391,24.41873 33.09008,24.39756 0.74207,-0.009 3.83355,-2.92298 6.86995,-6.47617 z m -32.22382,-40.31643 18.15807,-12.71841 -0.009,-4.59649 c -0.01,-5.1485 -4.11857,-28.4221 -5.2108,-29.51433 -0.38685,-0.38685 -4.93545,0.10306 -10.108,1.08869 -12.68432,2.41697 -35.59306,2.45224 -46.97909,0.0723 -4.89797,-1.02377 -8.092,-1.31906 -8.4258,-0.77895 -0.55821,0.9032 -6.68124,32.43292 -6.35678,32.73338 0.10115,0.0937 8.43336,6.07923 18.51601,13.30125 10.18321,7.29405 19.20441,13.13095 20.29449,13.13095 1.0793,0 10.13351,-5.72329 20.12045,-12.71841 z m 87.9975,-26.03718 c 8.18956,-2.49307 19.4647,-8.52694 26.56285,-14.21504 16.84277,-13.49695 28.36078,-38.24663 33.3243,-71.60665 1.78802,-12.01737 2.0876,-13.09886 2.74078,-9.89422 0.40333,1.97884 0.96889,11.78648 1.25677,21.79475 0.58081,20.19122 1.54291,24.21706 4.11301,17.21061 6.00225,-16.36294 7.42936,-42.30052 6.76362,-122.92772 -0.26267,-31.81068 -0.37185,-57.71556 -0.24263,-57.5664 1.25981,1.45409 6.23497,31.74462 8.02237,48.84283 1.97897,18.93089 2.19997,24.29926 1.79589,43.62454 -0.25343,12.12042 -1.03277,25.68001 -1.73187,30.13241 -0.6991,4.4524 -1.90508,16.19055 -2.67995,26.08477 -1.72918,22.07943 -3.53235,33.94749 -6.47148,42.59358 -2.75228,8.09646 -2.12325,9.31707 3.51636,6.82331 6.86715,-3.03657 13.89647,-10.64344 18.73427,-20.27356 2.38573,-4.74904 4.95612,-11.02288 5.71198,-13.94187 5.05908,-19.53739 4.65417,-53.75402 -1.23898,-104.69921 -9.19131,-79.45716 -18.18149,-117.49919 -35.60475,-150.66206 -10.76184,-20.48373 -26.64024,-41.00414 -43.15785,-55.77492 -9.81463,-8.77667 -29.62225,-22.66794 -39.06515,-27.39675 -16.1755,-8.10035 -38.00335,-15.56391 -56.58517,-19.34806 -10.24661,-2.08671 -13.03026,-2.26791 -34.62979,-2.25429 -22.54994,0.0142 -23.95551,0.11837 -35.21124,2.60913 -23.23247,5.14108 -47.36755,14.26281 -63.75308,24.09517 -8.59221,5.15588 -24.55509,17.33846 -32.63654,24.90763 -14.81746,13.8782 -31.63967,36.35732 -40.66088,54.33419 -11.13959,22.19821 -17.50005,41.78417 -23.42558,72.13511 -10.21852,52.3399 -17.23502,120.13289 -15.89179,153.54575 1.20996,30.09795 7.62625,47.54049 21.56913,58.63518 9.13859,7.27179 12.47385,6.01911 9.13911,-3.43254 -1.83504,-5.20106 -3.81936,-20.24971 -4.99067,-37.84815 -0.54329,-8.16273 -1.76112,-18.68659 -2.70629,-23.38635 -3.94667,-19.62453 -4.29498,-39.81285 -1.24924,-72.40773 1.70054,-18.19889 3.5236,-31.49945 6.04111,-44.07427 l 1.98085,-9.89423 0.5505,44.07427 c 0.30278,24.24085 0.60635,59.65291 0.67461,78.69348 l 0.1241,34.61919 3.26868,11.85416 c 2.42571,8.79708 3.58554,11.73256 4.49737,11.38266 0.95948,-0.36819 1.24356,-3.45589 1.2965,-14.09226 0.0571,-11.47041 2.14886,-33.64527 2.51253,-26.63541 0.26351,5.07938 4.90781,27.07838 7.49487,35.50153 8.69863,28.32165 25.92068,48.02599 49.70428,56.86834 7.97856,2.96631 13.07799,3.31027 13.07799,0.88213 0,-0.56221 -1.61171,-6.13432 -3.58158,-12.38246 -6.23194,-19.76677 -13.40886,-59.8861 -17.50939,-97.87829 -1.91397,-17.73342 -1.94923,-100.24966 -0.0529,-123.78681 0.71745,-8.90481 1.31592,-16.7204 1.32993,-17.36798 0.014,-0.64759 0.37272,-0.96283 0.79712,-0.70053 0.4244,0.26229 1.02573,10.91123 1.33628,23.6643 0.6092,25.01686 1.26854,31.01414 3.66823,33.36561 1.45467,1.42544 2.02428,1.01003 9.63947,-7.03004 8.27201,-8.73355 18.76443,-23.4216 18.76443,-26.26783 0,-0.87131 1.54115,-4.12111 3.42478,-7.22178 7.74434,-12.74804 14.32471,-32.94969 17.29296,-53.08928 0.63835,-4.33116 1.27441,-7.76106 1.41347,-7.62201 0.13905,0.13906 1.30743,6.51608 2.5964,14.17116 2.49191,14.79921 6.46938,29.15546 10.02739,36.19285 6.03259,11.9318 20.46316,27.63494 31.44361,34.21648 7.21361,4.32375 17.63902,8.72093 20.67671,8.72093 2.38495,0 2.41419,-0.0711 1.84825,-4.49737 -0.31626,-2.47356 -0.81784,-6.62239 -1.1146,-9.21962 l -0.53958,-4.72224 7.24089,7.74085 c 11.24175,12.01798 26.04758,22.39156 31.95865,22.39156 2.20043,0 2.19946,-0.004 -2.78116,-12.36778 -2.74029,-6.80228 -6.15589,-17.31626 -7.59021,-23.36438 -2.36563,-9.97511 -6.43124,-35.35656 -5.76944,-36.01836 0.14967,-0.14967 1.21519,2.06981 2.36782,4.93217 6.32851,15.71578 22.21646,35.99589 35.91743,45.84667 6.92204,4.97684 21.03789,12.38475 27.30406,14.329 5.10642,1.58442 5.3039,1.58364 6.4803,-0.0252 1.04193,-1.42492 0.94617,-2.18316 -0.6777,-5.36616 -2.3117,-4.53126 -7.16841,-18.70143 -6.6034,-19.26643 0.22494,-0.22494 2.3478,1.19695 4.71749,3.15974 6.09514,5.04859 16.58574,11.05069 19.31461,11.05069 3.25046,0 3.58545,-2.1358 4.23219,-26.98425 0.46582,-17.89717 0.65721,-20.03451 1.2484,-13.94186 4.47286,46.09589 4.18651,119.11511 -0.61022,155.60917 -5.35571,40.74683 -9.93421,65.19592 -15.45141,82.5102 -3.06687,9.62456 -3.79685,14.18336 -2.27112,14.18336 0.4426,0 3.57952,-0.84471 6.97093,-1.87712 z m -177.44388,-3.7446 c 0.2983,-1.1131 0.55142,-4.04764 0.56247,-6.52119 0.0291,-6.51817 1.03687,-13.94187 1.89256,-13.94187 0.77877,0 3.87963,9.31006 4.88399,14.66377 0.65755,3.50499 2.00621,4.19266 8.26247,4.21293 4.79219,0.0155 5.37458,-1.01015 6.35129,-11.18539 0.84885,-8.84337 1.27266,-8.18683 -6.99425,-10.83506 -7.65975,-2.45374 -24.94105,-11.54162 -33.33682,-17.53115 -8.07977,-5.7641 -9.32434,-6.24681 -10.20294,-3.95724 -1.49645,3.8997 8.63142,41.22275 12.22369,45.04656 1.70608,1.81604 2.80493,2.07246 8.88108,2.07246 6.43057,0 6.97348,-0.14697 7.47646,-2.02382 z m 155.48215,0.44974 c 3.70763,-4.21739 8.19661,-18.25314 11.0827,-34.65243 2.44638,-13.90081 1.54261,-14.76664 -7.91436,-7.58215 -7.23006,5.4927 -22.07018,13.17702 -34.2816,17.75126 l -7.97111,2.98588 0.58994,6.36378 c 1.08506,11.70467 1.17454,11.93548 4.86394,12.54557 1.8109,0.29946 4.56274,0.54892 6.11519,0.55437 2.81598,0.01 2.82741,-0.01 4.84794,-8.31024 2.11278,-8.67944 3.3663,-11.97471 4.22755,-11.11344 0.27992,0.27992 0.84151,4.45056 1.24799,9.26809 1.2375,14.66686 0.65832,13.76339 8.82308,13.76339 5.52549,0 7.27407,-0.32889 8.36874,-1.57408 z m -59.12114,-30.32313 c 30.61213,-5.75275 57.19331,-19.91503 73.15044,-38.97407 l 3.677,-4.39176 2.70019,-17.46132 c 2.60522,-16.8471 4.74044,-38.31125 6.00999,-60.4149 l 0.60723,-10.57248 -4.32468,-3.81912 c -5.32819,-4.70533 -8.93857,-6.96728 -11.12069,-6.96728 -2.03805,0 -2.78912,3.1646 -2.78912,11.752 0,13.08135 -7.73762,26.57777 -17.15484,29.92247 -9.5388,3.38788 -18.30996,-0.93272 -23.6068,-11.62851 -2.87206,-5.79947 -3.25939,-7.52566 -4.23849,-18.88898 -0.59268,-6.87841 -1.25642,-12.69731 -1.47499,-12.93089 -0.21857,-0.23359 -2.16071,0.20938 -4.31586,0.98437 l -3.91846,1.40907 0.44346,-2.78333 c 0.42979,-2.69745 0.26779,-2.85052 -5.25124,-4.96171 -3.13209,-1.19811 -8.15602,-3.68161 -11.16428,-5.5189 -5.1825,-3.16517 -5.74902,-3.30925 -10.7937,-2.74504 -7.18368,0.80343 -20.42462,-2.7052 -31.85864,-8.44202 -9.77779,-4.90584 -25.60445,-17.50133 -31.1501,-24.79051 -3.14861,-4.13853 -3.73642,-4.52094 -6.17811,-4.01925 -1.48414,0.30495 -6.03411,0.79808 -10.11105,1.09584 l -7.41264,0.54138 -5.08777,8.18711 c -2.79828,4.50291 -7.45668,10.85296 -10.352,14.11121 -5.59116,6.29202 -6.8438,9.59066 -3.24041,8.53306 1.1131,-0.32669 9.82737,-2.89033 17.74275,-3.1768 13.47171,-0.48757 15.08776,0.3091 22.72263,2.41649 6.96586,1.92271 14.48164,6.4972 14.48164,7.30802 0,0.12953 1.85599,2.51534 -0.18143,2.59658 -4.30804,0.1718 -8.03835,-4.99323 -9.8848,0.95398 -0.60154,1.9375 4.16807,2.09552 6.45068,4.82964 3.09174,3.70329 2.34359,7.26193 0.90018,7.30018 -1.86137,0.0493 -7.49935,-3.89923 -7.67403,-3.79666 l -0.86137,0.50585 -0.0522,4.64135 c -0.0329,2.92987 0.26458,9.25104 -0.33385,13.3865 -1.88609,13.03396 -6.26483,21.0916 -14.74246,25.37109 -8.37845,4.22942 -16.77012,2.54868 -23.46185,-4.48066 -7.20769,-7.57133 -8.02921,-17.29033 -8.02921,-30.53141 0,-7.0696 -0.0263,-7.15152 -2.29804,-7.15152 -2.68826,0 -12.50031,6.39339 -13.93969,9.0829 -1.82989,3.41918 1.16548,47.28372 5.05969,74.09489 2.53952,17.48421 3.03541,18.54445 12.93598,27.65781 17.00726,15.655 40.2083,26.79635 67.05189,32.19896 12.93691,2.60371 37.99601,2.39895 53.06902,-0.43363 z m 32.60597,-163.74291 c 4.42577,-0.89075 3.70657,-3.23314 -2.61437,-8.51478 -4.74976,-3.96882 -5.71703,-4.44778 -6.79845,-3.36636 -1.08142,1.08141 -0.91827,2.11642 1.14668,7.27458 1.81525,4.53441 2.76852,5.91305 3.87517,5.60434 0.80722,-0.22518 2.78316,-0.67419 4.39097,-0.99778 z m -119.4053,-41.77895 c 0,-2.93705 -1.99129,-6.33865 -3.71063,-6.33865 -1.93008,0 -3.48517,2.58239 -3.48517,5.78746 0,2.09281 0.33521,2.30782 3.5979,2.30782 2.96936,0 3.5979,-0.30688 3.5979,-1.75663 z"
           id="path173" />
        <path
           style="display:none;fill:#967d80;fill-opacity:1;stroke-width:0.318012"
           d="m 564.80179,479.93981 c -0.81431,-0.87865 -3.10988,-4.78193 -4.27121,-8.29826 -0.60353,-1.82742 -0.008,-3.02798 0.41178,-3.77895 0.83069,-1.48685 2.47846,-1.11315 5.61298,1.32049 3.27586,2.54337 6.9502,6.50541 7.30759,7.63142 0.37976,1.19653 -0.31181,2.52432 -3.46354,3.2034 -1.46923,0.31657 -3.7157,0.1721 -3.9277,0.25249 -0.212,0.0804 -1.23841,0.135 -1.6699,-0.33059 z"
           id="path186" />
      </g>
      <ellipse
         style="display:none;fill:url(#linearGradient189);fill-opacity:1;stroke-width:0.961274"
         id="path188"
         cx="457.08392"
         cy="483.28094"
         rx="19.999557"
         ry="24.398743"
         transform="matrix(0.99715564,0.0753699,-0.03378046,0.99942928,0,0)" />
      <ellipse
         style="display:none;fill:url(#linearGradient190);fill-opacity:1;stroke-width:0.943598"
         id="path188-6"
         cx="600.93555"
         cy="470.07458"
         rx="19.640051"
         ry="23.940063"
         transform="matrix(0.99716043,0.07530661,-0.03380898,0.99942831,0,0)" />
      <path
         style="display:inline;fill:#000000;fill-opacity:1;stroke-width:0.636025"
         d="m 493.34433,596.73034 c -5.10138,-1.47448 -8.79065,-13.11631 -0.86719,-11.65594 3.43752,3.17093 7.51016,8.22304 12.42459,3.91321 4.49388,-3.06071 10.48641,-2.17478 14.62249,1.0556 5.91659,4.07406 7.36284,-5.95043 12.76859,-5.80823 6.37372,2.31914 1.17479,9.53779 -2.61282,11.75836 -4.74201,4.25976 -11.90984,2.72975 -16.98446,-0.0312 -4.68218,-1.17147 -8.31937,3.65374 -13.06755,2.87234 -2.23928,-0.0635 -4.48038,-0.75659 -6.28365,-2.10411 z"
         id="path174" />
    </g>
    <g
       id="g182"
       style="display:none;fill:#d66a49;fill-opacity:1">
      <g
         id="g209">
        <path
           style="display:inline;fill:#d66a49;fill-opacity:1;stroke-width:0.112434"
           d="m 449.19556,563.08261 -1.27274,-0.79832 0.0636,-0.67461 c 0.035,-0.37103 0.17384,-1.64857 0.30862,-2.83897 l 0.24505,-2.16436 h 1.94579 c 1.9264,0 1.94634,0.003 2.00145,0.25298 0.18356,0.83409 0.50927,3.59403 0.43796,3.71102 -0.0752,0.12341 -2.4049,3.27063 -2.44225,3.2993 -0.008,0.006 -0.58743,-0.34797 -1.28744,-0.78704 z"
           id="path178" />
        <path
           style="display:inline;fill:#d66a49;fill-opacity:1;stroke-width:0.112434"
           d="m 435.56501,561.02062 -0.62412,-1.9913 1.35495,-1.94037 c 0.74522,-1.06721 1.38569,-1.94125 1.42327,-1.94231 0.0628,-0.002 1.87169,2.12575 2.21791,2.60853 0.12683,0.17686 0.10165,0.55411 -0.16313,2.44351 l -0.31312,2.23436 -1.53867,0.29103 c -0.84626,0.16007 -1.58238,0.29032 -1.63581,0.28944 -0.0534,-8.8e-4 -0.37801,-0.89768 -0.72128,-1.99289 z"
           id="path177" />
        <path
           style="display:inline;fill:#d66a49;fill-opacity:1;stroke-width:0.112434"
           d="m 424.81179,563.45174 c -0.23554,-0.32684 -0.93899,-1.32862 -1.56322,-2.22617 l -1.13497,-1.63191 1.30362,-1.99133 1.30361,-1.99133 1.37733,-0.008 1.37732,-0.008 v 3.85581 3.85581 l -0.9838,0.3195 c -0.54109,0.17573 -1.04407,0.34221 -1.11772,0.36997 -0.0736,0.0277 -0.32663,-0.21695 -0.56217,-0.54379 z"
           id="path176" />
        <path
           style="display:inline;fill:#d66a49;fill-opacity:1;stroke-width:0.112434"
           d="m 411.96962,562.48105 c -0.0611,-0.2319 -0.33286,-1.30924 -0.604,-2.39409 l -0.49299,-1.97245 0.63396,-1.00706 0.63397,-1.00705 1.80153,-0.0308 1.80153,-0.0308 0.46388,1.23008 0.46388,1.23007 -0.80995,2.20096 -0.80995,2.20096 -1.48542,9.1e-4 -1.48543,9.1e-4 z"
           id="path175" />
      </g>
      <g
         id="g208">
        <path
           style="display:inline;fill:#d66a49;fill-opacity:1;stroke-width:0.318012"
           d="m 607.60939,561.90679 -1.5434,-1.73507 1.06638,-2.06187 c 1.0574,-2.04449 1.07577,-2.0602 2.17943,-1.86264 1.72968,0.30962 2.22609,0.68205 2.22609,1.67012 0,0.49291 0.0896,1.75309 0.19903,2.80039 l 0.19902,1.90418 -1.3185,0.52756 c -0.72518,0.29016 -1.35139,0.51965 -1.39158,0.50998 -0.0402,-0.01 -0.7676,-0.79836 -1.61647,-1.75265 z"
           id="path182" />
        <path
           style="display:inline;fill:#d66a49;fill-opacity:1;stroke-width:0.318012"
           d="m 595.66153,561.60994 -1.40175,-2.06708 1.40175,-2.06708 c 0.77096,-1.1369 1.50523,-2.06708 1.63171,-2.06708 0.12648,0 0.73582,0.44414 1.35408,0.98698 1.08055,0.94873 1.12411,1.07106 1.12411,3.15697 0,2.11849 -0.0281,2.19318 -1.1855,3.14718 -0.65203,0.53745 -1.26136,0.97719 -1.35408,0.97719 -0.0927,0 -0.79936,-0.93019 -1.57032,-2.06708 z"
           id="path181" />
        <path
           style="display:inline;fill:#d66a49;fill-opacity:1;stroke-width:0.318012"
           d="m 583.12018,561.85711 -1.09656,-2.17747 1.07299,-2.31653 c 0.96731,-2.08836 1.15421,-2.30652 1.89755,-2.21497 0.62942,0.0775 1.06031,0.52832 1.82081,1.90497 l 0.99626,1.80342 -0.93776,2.48975 c -0.82429,2.1885 -1.04174,2.50176 -1.79724,2.58902 -0.77479,0.0895 -0.96756,-0.1153 -1.95605,-2.07819 z"
           id="path180" />
        <path
           style="display:inline;fill:#d66a49;fill-opacity:1;stroke-width:0.318012"
           d="m 571.08289,562.32547 c -0.98895,-1.21724 -1.06984,-1.46217 -0.81389,-2.4646 0.90656,-3.55063 0.87347,-3.48632 2.04571,-3.97612 0.62665,-0.26183 1.24958,-0.47605 1.38428,-0.47605 0.13471,0 0.48756,0.99009 0.78411,2.20021 0.68551,2.79727 0.26924,5.56258 -0.88389,5.87178 -1.19775,0.32115 -1.38767,0.23397 -2.51632,-1.15522 z"
           id="path179" />
      </g>
    </g>
  </g>
  <metadata
     id="metadata209">
    <rdf:RDF>
      <cc:Work
         rdf:about="">
        <dc:title>LMM</dc:title>
        <dc:date>9/05/2024</dc:date>
        <dc:creator>
          <cc:Agent>
            <dc:title>DaemonWhite</dc:title>
          </cc:Agent>
        </dc:creator>
      </cc:Work>
    </rdf:RDF>
  </metadata>
</svg>
