<?xml version="1.0" encoding="UTF-8"?>
<svg height="16px" viewBox="0 0 16 16" width="16px" xmlns="http://www.w3.org/2000/svg">
    <path d="m 3.871094 15.902344 c -0.054688 -0.070313 -0.058594 -0.082032 -0.058594 -0.453125 c 0.003906 -0.425781 0.023438 -0.640625 0.101562 -1.09375 c 0.15625 -0.859375 0.464844 -1.53125 0.886719 -1.945313 c 0.265625 -0.261718 0.410157 -0.347656 1.082031 -0.640625 c 0.308594 -0.140625 0.375 -0.191406 0.296876 -0.242187 c -0.050782 -0.035156 -0.21875 -0.023438 -0.21875 0.011718 c 0 0.0625 -0.089844 0.085938 -0.277344 0.070313 c -0.351563 -0.03125 -0.695313 -0.160156 -1.042969 -0.394531 c -0.121094 -0.082032 -0.511719 -0.476563 -0.511719 -0.515625 c 0 -0.011719 -0.089844 -0.019531 -0.199218 -0.019531 c -0.679688 0.015624 -1.246094 -0.488282 -1.425782 -1.273438 c -0.132812 -0.570312 -0.125 -1.316406 0.027344 -2.671875 c 0.203125 -1.820313 0.429688 -2.800781 0.851562 -3.679687 c 0.691407 -1.441407 1.917969 -2.4375 3.472657 -2.828126 c 0.441406 -0.109374 0.726562 -0.1445308 1.175781 -0.1445308 c 0.902344 0 1.855469 0.2695308 2.640625 0.7421878 c 0.523437 0.3125 1.09375 0.824219 1.449219 1.300781 c 0.433594 0.582031 0.773437 1.292969 0.992187 2.082031 c 0.328125 1.179688 0.613281 3.8125 0.515625 4.742188 c -0.066406 0.640625 -0.234375 1.046875 -0.5625 1.363281 c -0.25 0.242188 -0.5625 0.367188 -0.929687 0.367188 h -0.195313 l -0.042968 0.074218 c -0.078126 0.128906 -0.332032 0.375 -0.527344 0.503906 c -0.222656 0.148438 -0.484375 0.253907 -0.78125 0.3125 c -0.335938 0.070313 -0.390625 0.066407 -0.464844 -0.003906 c -0.09375 -0.085937 -0.296875 -0.082031 -0.296875 0.003906 c 0 0.042969 0.039063 0.066407 0.464844 0.25 c 0.558593 0.246094 0.800781 0.402344 1.066406 0.6875 c 0.148437 0.160157 0.324219 0.441407 0.453125 0.71875 c 0.257812 0.5625 0.453125 1.558594 0.453125 2.300782 v 0.285156 l -0.171875 0.164062 h -8.164062 z m 1.3125 -0.253906 c 0.023437 -0.027344 0.03125 -0.0625 0.023437 -0.097657 c -0.011719 -0.046875 -0.003906 -0.046875 0.074219 0.03125 l 0.089844 0.082031 h 5.292968 l 0.097657 -0.09375 l 0.09375 -0.09375 v 0.082032 c 0 0.050781 0.011719 0.085937 0.035156 0.09375 c 0.019531 0.007812 0.265625 0.011718 0.542969 0.011718 h 0.503906 l -0.015625 -0.40625 c -0.015625 -0.464843 -0.058594 -0.765624 -0.199219 -1.292968 c -0.199218 -0.765625 -0.503906 -1.25 -0.980468 -1.554688 c -0.25 -0.164062 -0.4375 -0.246094 -0.484376 -0.21875 c -0.019531 0.011719 -0.257812 0.300782 -0.527343 0.640625 l -0.488281 0.617188 l -0.183594 -0.136719 c -0.097656 -0.078125 -0.265625 -0.199219 -0.371094 -0.269531 c -0.152344 -0.105469 -0.191406 -0.121094 -0.214844 -0.097657 c -0.027344 0.023438 0.007813 0.179688 0.117188 0.503907 c 0.011718 0.039062 -0.21875 0.144531 -0.238282 0.109375 c -0.007812 -0.015625 -0.078124 -0.214844 -0.15625 -0.441406 c -0.121093 -0.351563 -0.144531 -0.386719 -0.175781 -0.375 c -0.03125 0.015624 -0.136719 0.328124 -0.171875 0.429687 c -0.070312 0.210937 -0.136718 0.386719 -0.144531 0.398437 c -0.007813 0.011719 -0.203125 -0.054687 -0.238281 -0.082031 c -0.003906 -0.003906 0.027344 -0.109375 0.070312 -0.238281 c 0.09375 -0.269531 0.09375 -0.289062 0.03125 -0.289062 c -0.039062 0 -0.414062 0.238281 -0.667968 0.429687 c -0.0625 0.042969 -0.074219 0.046875 -0.097657 0.015625 c -0.105469 -0.140625 -0.933593 -1.160156 -0.972656 -1.195312 c -0.046875 -0.039063 -0.050781 -0.039063 -0.164063 0 c -0.285156 0.097656 -0.628906 0.355468 -0.832031 0.625 c -0.226562 0.304687 -0.371093 0.613281 -0.492187 1.070312 c -0.125 0.484375 -0.1875 0.886719 -0.226563 1.460938 c -0.019531 0.351562 -0.070312 0.320312 0.527344 0.320312 c 0.460937 0 0.511719 -0.003906 0.542969 -0.039062 z m 2.167968 -2.910157 c 0.4375 -0.320312 0.441407 -0.332031 0.253907 -0.457031 c -0.070313 -0.042969 -0.273438 -0.191406 -0.460938 -0.328125 c -0.183593 -0.132813 -0.355469 -0.246094 -0.378906 -0.246094 c -0.042969 0 -0.574219 0.273438 -0.625 0.324219 c -0.027344 0.027344 -0.007813 0.0625 0.132813 0.25 c 0.09375 0.121094 0.265624 0.339844 0.386718 0.484375 c 0.179688 0.214844 0.230469 0.265625 0.269532 0.257813 c 0.027343 -0.007813 0.214843 -0.132813 0.421874 -0.285157 z m 1.976563 0.125 c 0.164063 -0.191406 0.492187 -0.601562 0.5625 -0.699219 c 0.089844 -0.128906 0.078125 -0.140624 -0.273437 -0.308593 c -0.1875 -0.089844 -0.339844 -0.148438 -0.367188 -0.140625 c -0.074219 0.019531 -0.921875 0.671875 -0.914062 0.703125 c 0.007812 0.039062 0.777343 0.605469 0.820312 0.605469 c 0.019531 0 0.097656 -0.070313 0.171875 -0.160157 z m -0.800781 -1 l 0.453125 -0.316406 l -0.003907 -0.117187 c 0 -0.125 -0.101562 -0.707032 -0.128906 -0.730469 c -0.007812 -0.011719 -0.121094 0 -0.25 0.023437 c -0.316406 0.0625 -0.882812 0.0625 -1.167968 0.003906 c -0.121094 -0.027343 -0.199219 -0.03125 -0.210938 -0.019531 c -0.011719 0.023438 -0.164062 0.804688 -0.15625 0.8125 c 0.003906 0.003907 0.210938 0.152344 0.460938 0.332031 c 0.253906 0.179688 0.476562 0.324219 0.503906 0.324219 s 0.25 -0.140625 0.5 -0.3125 z m 2.1875 -0.648437 c 0.203125 -0.0625 0.484375 -0.210938 0.660156 -0.355469 c 0.417969 -0.332031 0.703125 -0.949219 0.828125 -1.777344 c 0.042969 -0.300781 0.050781 -0.328125 0.066406 -0.246093 c 0.011719 0.046874 0.027344 0.292968 0.03125 0.539062 c 0.015625 0.503906 0.039063 0.605469 0.105469 0.429688 c 0.148438 -0.40625 0.183594 -1.050782 0.167969 -3.054688 c -0.007813 -0.792969 -0.011719 -1.433594 -0.007813 -1.433594 c 0.03125 0.039063 0.15625 0.789063 0.199219 1.214844 c 0.050781 0.472656 0.054687 0.605469 0.046875 1.085938 c -0.007812 0.300781 -0.027344 0.636718 -0.042969 0.75 c -0.019531 0.109374 -0.050781 0.402343 -0.066406 0.648437 c -0.042969 0.546875 -0.089844 0.84375 -0.164063 1.058594 c -0.066406 0.199219 -0.050781 0.230469 0.089844 0.167969 c 0.167969 -0.074219 0.34375 -0.265626 0.464844 -0.503907 c 0.058594 -0.117187 0.121094 -0.273437 0.140625 -0.347656 c 0.125 -0.484375 0.117187 -1.335937 -0.03125 -2.601563 c -0.226563 -1.976562 -0.449219 -2.921874 -0.882813 -3.746093 c -0.269531 -0.507813 -0.664062 -1.019531 -1.074218 -1.382813 c -0.242188 -0.21875 -0.734375 -0.566406 -0.96875 -0.683594 c -0.402344 -0.199218 -0.945313 -0.386718 -1.40625 -0.480468 c -0.257813 -0.050782 -0.324219 -0.054688 -0.863282 -0.054688 c -0.558593 0 -0.59375 0 -0.875 0.0625 c -0.578124 0.128906 -1.175781 0.355469 -1.582031 0.601563 c -0.214843 0.125 -0.613281 0.429687 -0.8125 0.617187 c -0.367187 0.34375 -0.785156 0.902344 -1.011719 1.351563 c -0.277343 0.550781 -0.433593 1.039062 -0.582031 1.792969 c -0.253906 1.300781 -0.429687 2.984374 -0.394531 3.816406 c 0.03125 0.746094 0.1875 1.179687 0.535156 1.457031 c 0.226563 0.179687 0.3125 0.148437 0.226563 -0.085937 c -0.042969 -0.128907 -0.09375 -0.503907 -0.121094 -0.941407 c -0.015625 -0.203125 -0.046875 -0.464843 -0.070313 -0.578125 c -0.097656 -0.488281 -0.105468 -0.992187 -0.03125 -1.800781 c 0.042969 -0.453125 0.089844 -0.785156 0.152344 -1.097656 l 0.046875 -0.246094 l 0.015625 1.097656 c 0.007813 0.601563 0.015625 1.480469 0.015625 1.957031 l 0.003907 0.859376 l 0.082031 0.292968 c 0.058593 0.21875 0.089843 0.292969 0.109375 0.285156 c 0.027344 -0.011718 0.03125 -0.085937 0.035156 -0.351562 c 0 -0.285156 0.050781 -0.835938 0.0625 -0.660156 c 0.003906 0.125 0.121094 0.671875 0.183594 0.878906 c 0.21875 0.707031 0.644531 1.195312 1.238281 1.414062 c 0.195313 0.074219 0.324219 0.082032 0.324219 0.023438 c 0 -0.015625 -0.039063 -0.152344 -0.089844 -0.308594 c -0.15625 -0.492187 -0.332031 -1.488281 -0.433594 -2.433594 c -0.050781 -0.441406 -0.050781 -2.492187 -0.003906 -3.074218 c 0.019531 -0.222656 0.035156 -0.417969 0.035156 -0.433594 s 0.007813 -0.023438 0.019532 -0.015625 c 0.011718 0.003906 0.023437 0.269531 0.03125 0.585937 c 0.015624 0.621094 0.03125 0.773438 0.09375 0.832032 c 0.035156 0.035156 0.050781 0.023437 0.238281 -0.175782 c 0.207031 -0.21875 0.464843 -0.582031 0.464843 -0.652343 c 0 -0.023438 0.039063 -0.105469 0.085938 -0.179688 c 0.195312 -0.316406 0.355469 -0.820312 0.429688 -1.320312 c 0.015624 -0.109375 0.03125 -0.191407 0.035156 -0.191407 c 0.003906 0.003907 0.035156 0.164063 0.066406 0.355469 c 0.0625 0.367188 0.160156 0.722657 0.25 0.898438 c 0.148438 0.296875 0.507812 0.6875 0.78125 0.851562 c 0.179688 0.105469 0.4375 0.214844 0.511719 0.214844 c 0.058593 0 0.0625 0 0.046875 -0.113281 c -0.007813 -0.058594 -0.019532 -0.164063 -0.027344 -0.226563 l -0.015625 -0.117187 l 0.183594 0.191406 c 0.277343 0.300781 0.644531 0.558594 0.792969 0.558594 c 0.054687 0 0.054687 -0.003906 -0.070313 -0.308594 c -0.066406 -0.167969 -0.152344 -0.429688 -0.1875 -0.582031 c -0.058594 -0.246094 -0.160156 -0.878907 -0.144531 -0.894531 c 0.003906 -0.003907 0.03125 0.050781 0.058594 0.121093 c 0.160156 0.390625 0.554687 0.894531 0.894531 1.140625 c 0.171875 0.125 0.523437 0.308594 0.679687 0.355469 c 0.125 0.039063 0.128906 0.039063 0.160156 0 c 0.023438 -0.035156 0.023438 -0.054687 -0.019531 -0.132813 c -0.054687 -0.113281 -0.175781 -0.464843 -0.164062 -0.480468 c 0.007812 -0.003906 0.058593 0.03125 0.117187 0.078125 c 0.152344 0.128906 0.414063 0.277343 0.480469 0.277343 c 0.082031 0 0.089844 -0.054687 0.105469 -0.671874 c 0.011718 -0.445313 0.015625 -0.496094 0.03125 -0.347657 c 0.113281 1.148438 0.105468 2.960938 -0.015625 3.871094 c -0.132813 1.011719 -0.246094 1.617187 -0.382813 2.050781 c -0.074218 0.238282 -0.09375 0.351563 -0.054687 0.351563 c 0.007812 0 0.085937 -0.023438 0.171875 -0.046875 z m -4.410156 -0.09375 c 0.007812 -0.027344 0.011718 -0.101563 0.011718 -0.160156 c 0.003906 -0.164063 0.027344 -0.347657 0.046875 -0.347657 s 0.097657 0.230469 0.125 0.363281 c 0.015625 0.085938 0.046875 0.105469 0.203125 0.105469 c 0.121094 0 0.132813 -0.027343 0.160156 -0.277343 c 0.019532 -0.222657 0.03125 -0.203126 -0.175781 -0.269532 c -0.191406 -0.0625 -0.621093 -0.289062 -0.828125 -0.4375 c -0.203125 -0.140625 -0.230468 -0.15625 -0.253906 -0.097656 c -0.039062 0.097656 0.214844 1.023438 0.304688 1.121094 c 0.042968 0.042968 0.070312 0.050781 0.21875 0.050781 c 0.160156 0 0.175781 -0.003906 0.1875 -0.050781 z m 3.863281 0.011718 c 0.09375 -0.105468 0.203125 -0.453124 0.277343 -0.863281 c 0.058594 -0.34375 0.039063 -0.367187 -0.199218 -0.1875 c -0.179688 0.136719 -0.546875 0.328125 -0.851563 0.441407 l -0.195312 0.074218 l 0.011719 0.160156 c 0.027343 0.289063 0.03125 0.296876 0.121093 0.308594 c 0.046875 0.007813 0.113281 0.015625 0.152344 0.015625 c 0.070313 0 0.070313 0 0.121094 -0.207031 c 0.050781 -0.214844 0.082031 -0.296875 0.105469 -0.277344 c 0.007812 0.007813 0.019531 0.113282 0.03125 0.230469 c 0.03125 0.367187 0.015624 0.34375 0.21875 0.34375 c 0.136718 0 0.179687 -0.007813 0.207031 -0.039063 z m -1.46875 -0.753906 c 0.761719 -0.144531 1.421875 -0.496094 1.816406 -0.96875 l 0.09375 -0.109375 l 0.066406 -0.433593 c 0.066407 -0.417969 0.117188 -0.953126 0.148438 -1.503907 l 0.015625 -0.261719 l -0.105469 -0.09375 c -0.132813 -0.117187 -0.222656 -0.171874 -0.277344 -0.171874 c -0.050781 0 -0.070312 0.078124 -0.070312 0.289062 c 0 0.328125 -0.191407 0.660156 -0.425781 0.746094 c -0.238282 0.082031 -0.457032 -0.023438 -0.585938 -0.289063 c -0.074219 -0.144531 -0.082031 -0.1875 -0.105469 -0.46875 c -0.015625 -0.171875 -0.03125 -0.316406 -0.039062 -0.324219 c -0.003907 -0.003906 -0.050781 0.007813 -0.105469 0.027344 l -0.097656 0.03125 l 0.011718 -0.066406 c 0.011719 -0.066406 0.007813 -0.070312 -0.132812 -0.125 c -0.078125 -0.027344 -0.199219 -0.089844 -0.277344 -0.136719 c -0.128906 -0.078125 -0.140625 -0.082031 -0.265625 -0.066406 c -0.179687 0.019531 -0.507812 -0.070313 -0.792969 -0.210937 c -0.242187 -0.121094 -0.636718 -0.433594 -0.773437 -0.617188 c -0.078125 -0.101562 -0.09375 -0.113281 -0.15625 -0.097656 c -0.035156 0.007812 -0.148437 0.019531 -0.25 0.027344 l -0.183594 0.011718 l -0.125 0.203125 c -0.070312 0.113281 -0.1875 0.269531 -0.257812 0.351563 c -0.140625 0.15625 -0.171875 0.238281 -0.082031 0.210937 c 0.027343 -0.007812 0.246093 -0.070312 0.441406 -0.078125 c 0.335937 -0.011718 0.375 0.007813 0.566406 0.058594 c 0.171875 0.050781 0.359375 0.164062 0.359375 0.183594 c 0 0.003906 0.046875 0.0625 -0.003906 0.0625 c -0.109375 0.003906 -0.203125 -0.121094 -0.246094 0.023437 c -0.015625 0.050781 0.101563 0.054688 0.160156 0.121094 c 0.074219 0.09375 0.058594 0.179687 0.019531 0.183594 c -0.042968 0 -0.183593 -0.097657 -0.1875 -0.097657 l -0.023437 0.015626 v 0.113281 c 0 0.074219 0.003906 0.230469 -0.007813 0.332031 c -0.046874 0.324219 -0.15625 0.527344 -0.367187 0.632812 c -0.207031 0.105469 -0.417969 0.0625 -0.582031 -0.113281 c -0.179688 -0.1875 -0.203125 -0.429687 -0.203125 -0.757812 c 0 -0.175781 0 -0.175781 -0.054688 -0.175781 c -0.066406 0 -0.3125 0.15625 -0.347656 0.222656 c -0.042969 0.085937 0.03125 1.175781 0.125 1.84375 c 0.066406 0.433594 0.078125 0.460937 0.324219 0.6875 c 0.421875 0.386718 1 0.664062 1.664062 0.800781 c 0.324219 0.0625 0.945313 0.058594 1.320313 -0.011719 z m 0.808593 -4.070312 c 0.113282 -0.023438 0.09375 -0.082032 -0.0625 -0.210938 c -0.117187 -0.097656 -0.144531 -0.109375 -0.167968 -0.085937 c -0.027344 0.027343 -0.023438 0.054687 0.027344 0.183593 c 0.042968 0.113282 0.070312 0.144532 0.097656 0.136719 c 0.019531 -0.003906 0.066406 -0.015625 0.105468 -0.023437 z m -2.964843 -1.039063 c 0 -0.074219 -0.050781 -0.15625 -0.09375 -0.15625 c -0.046875 0 -0.085938 0.0625 -0.085938 0.144531 c 0 0.050782 0.007813 0.054688 0.089844 0.054688 c 0.074219 0 0.089844 -0.007812 0.089844 -0.042969 z m 0 0"/>
    <path d="m 7.582031 9.222656 c -0.128906 -0.035156 -0.21875 -0.324218 -0.023437 -0.289062 c 0.085937 0.078125 0.1875 0.203125 0.308594 0.097656 c 0.113281 -0.074219 0.261718 -0.054688 0.363281 0.027344 c 0.148437 0.101562 0.183593 -0.148438 0.320312 -0.144532 c 0.15625 0.058594 0.027344 0.238282 -0.066406 0.292969 c -0.117187 0.105469 -0.296875 0.066407 -0.421875 -0.003906 c -0.117188 -0.027344 -0.207031 0.09375 -0.324219 0.074219 c -0.054687 -0.003906 -0.113281 -0.019532 -0.15625 -0.054688 z m 0 0"/>
</svg>
