<?xml version="1.0" encoding="UTF-8"?>
<svg height="128px" viewBox="0 0 128 128" width="128px" xmlns="http://www.w3.org/2000/svg" xmlns:xlink="http://www.w3.org/1999/xlink">
    <linearGradient id="a" gradientUnits="userSpaceOnUse" x1="67.30493496723" x2="62.19721649467" y1="120.50242129296" y2="103.14394039321">
        <stop offset="0" stop-color="#acb3bb"/>
        <stop offset="1" stop-color="#acb3bb" stop-opacity="0"/>
    </linearGradient>
    <linearGradient id="b" gradientUnits="userSpaceOnUse" x1="86.20635989041" x2="85.36553428323" y1="116.33782835739" y2="91.22636931446">
        <stop offset="0" stop-color="#9ea4b0"/>
        <stop offset="1" stop-color="#acb3bb"/>
    </linearGradient>
    <linearGradient id="c" gradientUnits="userSpaceOnUse">
        <stop offset="0"/>
        <stop offset="1" stop-color="#560000"/>
    </linearGradient>
    <linearGradient id="d" gradientTransform="matrix(0.168828 0.0127609 -0.00589542 0.174422 -23.384119 -29.721088)" x1="457.227661" x2="460.661346" xlink:href="#c" y1="464.161957" y2="498.000336"/>
    <linearGradient id="e" gradientTransform="matrix(0.165794 0.012521 -0.00578948 0.171143 3.69006 -28.449702)" x1="457.227661" x2="460.661346" xlink:href="#c" y1="464.161957" y2="498.000336"/>
    <path d="m 69.625 100.554688 c -1.152344 -0.835938 -2.671875 -1.636719 -2.996094 -2.039063 l -0.804687 -0.792969 l 1.902343 -1.519531 c 1.007813 -0.808594 2.671876 -1.765625 3.425782 -2.316406 c 1.640625 -1.199219 1.535156 -1.203125 4.304687 0.152343 c 1.503907 0.738282 1.96875 1.039063 1.96875 1.277344 c 0 0.613282 -4.914062 7.164063 -5.414062 7.160156 c -0.089844 0 -1.238281 -1.082031 -2.386719 -1.921874 z m 0 0" fill="#fefefe"/>
    <path d="m 53.871094 100.355469 c -1.742188 -2.09375 -3.9375 -4.921875 -3.9375 -5.101563 c 0 -0.152344 1.546875 -0.84375 3.324218 -1.734375 c 1.089844 -0.546875 1.40625 -0.640625 1.738282 -0.515625 c 0.714844 0.261719 6.710937 4.382813 6.714844 4.644532 c 0.003906 0.308593 -0.722657 1.070312 -2.386719 2.316406 c -1.929688 1.441406 -3.378907 2.328125 -3.65625 2.328125 c -0.132813 0 -0.96875 -0.941407 -1.796875 -1.9375 z m 0 0" fill="#fefefe"/>
    <path d="m 36.195312 121.402344 c -0.785156 -0.167969 -0.613281 -0.542969 -0.519531 -1.539063 c 0.042969 -0.445312 -0.113281 -1.734375 -0.015625 -2.882812 c 0.21875 -2.605469 0.75 -5.15625 1.382813 -7.652344 c 1.425781 -5.648437 3.65625 -9.59375 7.140625 -11.914063 c 1.179687 -0.785156 3.199218 -1.40625 3.671875 -1.40625 c 0.308593 0 2.023437 2.304688 5.660156 6.867188 c 0.929687 1.164062 1.578125 2.25 1.714844 2.253906 c 0.136719 0.007813 0.679687 -0.300781 1.207031 -0.683594 c 1.433594 -1.042968 3.808594 -2.523437 4.046875 -2.523437 c 0.296875 0 0.4375 0.148437 -0.105469 1.84375 c -0.265625 0.828125 -0.652344 1.609375 -0.652344 1.695313 c 0 0.191406 0.914063 0.101562 1.4375 0.496093 l 0.257813 -0.0625 l 0.476563 -1.335937 c 1.359374 -3.828125 1.730468 -4.117188 1.871093 -3.898438 c 0.109375 0.175782 0.136719 0.171875 0.144531 -0.027344 c 0.011719 -0.441406 0.496094 0.300782 1.414063 2.925782 c 0.488281 1.398437 0.859375 2.3125 0.921875 2.371094 c 0.144531 0.140624 0.957031 -0.347657 1.253906 -0.640626 c 0.199219 -0.199218 0.191406 -0.046874 -0.152344 -1.214843 c -0.550781 -1.855469 -0.40625 -2.28125 -0.234374 -2.386719 c 0.160156 -0.097656 2.042968 1.140625 4.082031 2.6875 c 0.6875 0.519531 1.308593 0.925781 1.378906 0.898438 c 0.070313 -0.03125 1.742187 -2.070313 3.714844 -4.535157 c 4.140625 -5.179687 3.585937 -4.847656 5.933593 -3.519531 c 4.289063 2.429688 6.652344 6 8.285157 12.519531 c 0.792969 3.164063 1.054687 4.90625 1.234375 8.121094 c 0.085937 1.542969 0.15625 2.933594 0.160156 3.089844 c 0 0.246093 -0.175781 0.28125 -1.484375 0.28125 c -0.820313 0 -2.523437 -0.050781 -3.785156 -0.105469 l -2.296875 -0.105469 l -0.097656 -0.632812 l -0.101563 -0.628907 l -0.746094 0.734376 l -0.75 0.738281 h -18.878906 l -19.066406 0.148437 l -0.769531 -0.597656 l -0.359376 -0.699219 l -0.0625 0.375 c -0.039062 0.234375 0.042969 0.609375 -0.078124 0.710938 c -0.273438 0.226562 -6.320313 0.429687 -7.234376 0.234375 z m 0 0" fill="#fefefe"/>
    <path d="m 50.371094 94.902344 s 2.34375 1.210937 4.765625 1.523437 c 2.140625 0.203125 2.976562 0.0625 4.871093 -0.242187 l -5.179687 -3.59375 z m 0 0" fill="#afbcc2"/>
    <path d="m 67.601562 96.304688 c 0.777344 0.25 7.171876 3.078124 7.171876 3.078124 l 3.070312 -4.242187 l -5.242188 -2.773437 z m 0 0" fill="#afbcc2"/>
    <path d="m 45.496094 121.425781 s -1.203125 -1.902343 -1.078125 -4.113281 l 0.03125 -3.886719 c -0.074219 -0.308593 0.332031 -0.367187 0.582031 0.027344 c 0.851562 0.941406 1.699219 1.164063 1.699219 1.164063 c 0.457031 0.382812 8.207031 0.957031 8.207031 0.957031 l 6.78125 0.367187 l 5.023438 0.039063 s 6.691406 -0.40625 8.433593 -0.679688 c 1.984375 -0.234375 5.835938 -1.550781 6.742188 -2.128906 c 0.816406 -0.304687 1.703125 -5.257813 1.703125 -5.257813 l 0.335937 5.964844 l -1.558593 7.359375 z m 0 0" fill="url(#a)"/>
    <path d="m 55.285156 105.476562 c 0.21875 -0.082031 3.96875 -2 4.578125 -2.050781 c 0.378907 -0.019531 2.410157 0.175781 2.410157 0.175781 s 0.953124 0.132813 1.460937 0.121094 c 0.449219 -0.035156 1.589844 -0.328125 1.589844 -0.328125 l 1.855469 -0.058593 l 5.363281 2.082031 l 7.464843 -7.34375 s 2.015626 1.308593 2.726563 3.796875 c 0 0 0.988281 3.238281 0.898437 6.453125 c 0.234376 4.433593 -1.859374 13.148437 -1.859374 13.148437 l 10.644531 -0.167968 l -1.070313 -12.113282 l -5.070312 -10.570312 l -6.351563 -2.566406 l -7.75 8.0625 l -7.878906 -5.148438 l -9.035156 6.179688 z m 0 0" fill="url(#b)"/>
    <path d="m 81.933594 89.003906 c 0 -0.203125 0.25 -1.234375 0.554687 -2.292968 c 0.964844 -3.355469 1.570313 -6.519532 2.40625 -12.546876 c 0.71875 -5.199218 0.8125 -7.066406 0.816407 -15.929687 c 0.003906 -7.921875 -0.21875 -13.617187 -0.550782 -14.214844 c -0.128906 -0.226562 -0.324218 2.53125 -0.339844 4.804688 c -0.015624 2.003906 -0.15625 2.640625 -0.601562 2.707031 c -0.414062 0.058594 -1.949219 -0.761719 -3.242188 -1.730469 c -0.480468 -0.359375 -0.9375 -0.65625 -1.015624 -0.65625 c -0.222657 0 0.015624 0.886719 0.707031 2.644531 c 0.398437 1.007813 0.574219 1.652344 0.476562 1.75 c -0.25 0.25 -1.167969 -0.011718 -2.746093 -0.777343 c -2.28125 -1.113281 -3.660157 -2.074219 -5.15625 -3.601563 c -1.695313 -1.734375 -3.1875 -3.820312 -4.125 -5.765625 c -0.390626 -0.820312 -0.757813 -1.488281 -0.808594 -1.488281 c -0.261719 0 0.691406 5.566406 1.332031 7.757812 c 0.222656 0.773438 0.695313 2.144532 1.046875 3.046876 c 0.351562 0.902343 0.617188 1.730468 0.589844 1.839843 c -0.035156 0.15625 -0.179688 0.152344 -0.675782 -0.019531 c -1.066406 -0.367188 -2.824218 -1.679688 -4.671874 -3.488281 c -0.972657 -0.945313 -1.777344 -1.707031 -1.789063 -1.6875 c -0.011719 0.015625 0.050781 0.664062 0.136719 1.433593 c 0.085937 0.773438 0.113281 1.507813 0.066406 1.636719 c -0.128906 0.332031 -0.554688 0.203125 -2.683594 -0.824219 c -1.742187 -0.839843 -1.957031 -0.996093 -3.632812 -2.679687 c -2.910156 -2.925781 -3.78125 -4.707031 -4.742188 -9.6875 c -0.632812 -3.292969 -0.640625 -3.332031 -0.722656 -3.253906 c -0.039062 0.039062 -0.25 1.042969 -0.46875 2.234375 c -0.21875 1.1875 -0.664062 2.992187 -0.984375 4.011718 c -0.753906 2.390626 -2.863281 6.695313 -4.097656 8.359376 c -1.273438 1.714843 -3.109375 3.632812 -3.339844 3.488281 c -0.382813 -0.234375 -0.527344 -1.4375 -0.6875 -5.574219 c -0.089844 -2.34375 -0.199219 -4.363281 -0.242187 -4.492188 c -0.21875 -0.621093 -0.375 0.359376 -0.53125 3.367188 c -0.453126 8.53125 -0.3125 19.921875 0.296874 24.617188 c 0.757813 5.820312 1.796876 11.253906 2.835938 14.835937 c 0.71875 2.476563 0.71875 2.449219 -0.164062 2.328125 c -1.519532 -0.207031 -3.832032 -1.398438 -5.570313 -2.863281 c -1.628906 -1.371094 -3.601563 -3.601563 -4.5625 -6.101563 c -0.476563 -1.234375 -1.265625 -5.394531 -1.621094 -7.570312 c -0.171875 -1.046875 -0.210937 -0.300782 -0.320312 1.972656 c -0.199219 4.128906 -0.28125 5.027344 -0.425781 4.765625 c -0.496094 -1.367187 -0.871094 -2.777344 -1.269532 -4.171875 l -0.023437 -10.085938 c -0.011719 -5.546874 -0.066407 -11.855468 -0.121094 -14.027343 c -0.109375 -4.375 -0.140625 -4.390625 -0.820313 -0.402344 c -1.152343 6.769531 -1.417968 14.40625 -0.65625 18.828125 c 0.183594 1.0625 0.445313 3.234375 0.582032 4.828125 c 0.300781 3.484375 0.46875 4.78125 0.820312 6.292969 c 0.148438 0.632812 0.21875 1.269531 0.164063 1.414062 c -0.09375 0.242188 -0.160157 0.234375 -0.757813 -0.066406 c -1.695312 -0.867188 -3.550781 -3.296875 -4.203125 -5.847656 c -1.054687 -4.117188 -0.796875 -12.046875 0.679688 -23.132813 c 1.875 -14.085937 3.996093 -21.035156 8.875 -27.582031 c 2.664062 -3.574219 6.910156 -7.167969 10.484375 -9.257812 c 2.609375 -1.53125 7.070312 -3.167969 10.839844 -4.011719 c 1.738281 -0.390625 2.441406 -0.59375 6.625 -0.59375 c 4.890624 0 6.015624 0.167969 9.429687 1.160156 c 4.816406 1.40625 7.324219 3.03125 11.179687 5.871094 c 6.386719 4.703125 11.042969 11.773437 13.359376 20.289062 c 1.980468 7.277344 3.886718 22.042969 3.914062 30.316407 c 0.015625 5.191406 -0.324219 7.070312 -1.75 9.65625 c -0.945312 1.710937 -2.785156 3.457031 -3.648438 3.457031 c -0.367187 0 -0.363281 -0.164063 0.039063 -1.4375 c 0.445313 -1.429688 0.734375 -3.359375 1.117187 -7.496094 c 0.179688 -1.945313 0.414063 -4.152344 0.515626 -4.90625 c 0.316406 -2.265625 0.265624 -10.578125 -0.082032 -13.355469 c -0.390625 -3.136718 -1.1875 -7.828125 -1.386718 -8.167968 c -0.109376 -0.1875 -0.164063 3.605468 -0.167969 11.707031 c -0.007813 11.332031 -0.121094 15.390625 -0.496094 17.621093 c -0.242187 1.445313 -0.796875 3.199219 -0.957031 3.039063 c -0.078125 -0.078125 -0.21875 -1.769531 -0.316406 -3.761719 c -0.097657 -1.992187 -0.242188 -3.679687 -0.316407 -3.757812 c -0.078125 -0.078125 -0.210937 0.234375 -0.300781 0.722656 c -0.089844 0.472656 -0.320312 1.730469 -0.515625 2.792969 c -0.921875 4.980469 -2.8125 8.804687 -5.492187 11.101562 c -1.066407 0.914063 -3.300782 2.171875 -4.714844 2.652344 c -1.214844 0.414063 -1.375 0.40625 -1.375 -0.042969 z m 0 0" fill="#fefefe"/>
    <path d="m 87.660156 86.6875 c -1.292968 1.761719 -5.589844 3.171875 -5.800781 2.863281 c -1.035156 -0.121093 1.917969 -8.738281 1.917969 -8.738281 l 1.542968 -11.371094 l 0.417969 -13 l -0.332031 -9.628906 l -0.722656 -6.164062 l -1.453125 -7.179688 s 4.449219 3.238281 4.414062 3.433594 c -0.039062 0.199218 3.3125 5.828125 3.3125 5.828125 c 2.039063 2.164062 -1.832031 17.027343 -0.117187 21.058593 c 1.71875 4.03125 -3.179688 22.898438 -3.179688 22.898438 z m 0 0" fill="#d1d1cf"/>
    <path d="m 86.96875 87.367188 c 3.621094 -15.207032 3.574219 -34.035157 3.503906 -39.5 c 0.164063 -5.53125 -2.21875 -9.699219 -3.105468 -10.800782 c -1.933594 -2.03125 -4.460938 -3.148437 -4.1875 -4.414062 c 0.386718 -0.699219 0.683593 -1.097656 0.671874 -2.054688 c -0.289062 -3.308594 -0.484374 -5.035156 -1.773437 -7.980468 c -1.472656 -2.714844 -4.761719 -6.03125 -4.761719 -6.03125 s -3.550781 -3.109376 -3.644531 -3.566407 c -0.269531 -0.207031 4.441406 0.714844 8.460937 3.304688 l 6.082032 4.75 l 5.835937 7.207031 l 4.964844 12.832031 l 1.953125 15.234375 l 1.445312 11.582032 s -0.804687 10.351562 -1.722656 11.230468 c -2.101562 2.007813 -4.160156 3.414063 -4.160156 3.414063 l -7.855469 3.734375 s -1.308593 1.070312 -1.671875 1.035156 z m 0 0" fill="#9c9faf"/>
    <path d="m 31.617188 47.6875 c -0.113282 -0.375 0.015624 -1.761719 -0.4375 -0.832031 c -0.996094 2.335937 -1.175782 4.917969 -1.542969 7.410156 c -0.679688 5.070313 -0.800781 10.246094 -2.15625 15.203125 c -0.371094 1.238281 -0.863281 2.449219 -1.558594 3.542969 c 0.121094 1.929687 0.425781 3.882812 1.429687 5.570312 c 0.550782 1.007813 0.917969 2.171875 1.972657 2.773438 c 0.65625 0.207031 1.828125 1.8125 2.234375 0.894531 c 0.476562 -1 1.027344 -1.976562 1.457031 -2.988281 c 0.171875 -2.5625 0.410156 -5.128907 0.546875 -7.691407 c -0.324219 -6.804687 -0.953125 -13.589843 -1.75 -20.355468 c -0.117188 -1.171875 -0.191406 -2.347656 -0.195312 -3.527344 z m 0 0" fill="#bababa"/>
    <path d="m 83.316406 32.933594 c -0.652344 -2.382813 -3.917968 -1.285156 -2.519531 0.996094 c 0.417969 2.191406 0.613281 5.53125 0.210937 7.0625 c -0.96875 -1.804688 -2.542968 -5.273438 -3.570312 -5.816407 c 0.304688 1.457031 0.832031 6.316407 -1.609375 4.664063 c -0.519531 -3.085938 -1.699219 -6.015625 -3.023437 -8.835938 c 0.367187 3.230469 0.839843 6.539063 0.410156 9.777344 c -0.507813 3.15625 -4.289063 1.882812 -5.074219 -0.390625 c -0.414063 -0.914063 -1.082031 -4.417969 -1.253906 -3.710937 c 0.46875 1.53125 -0.007813 6.113281 -2.078125 3.273437 c -1.5625 -2.316406 -0.160156 2.792969 -1.519532 3.722656 c -2.769531 1.921875 -4.371093 -1.921875 -4.777343 -4.113281 c -0.878907 -3.019531 -0.167969 3.53125 -2.355469 3.492188 c -2.75 -0.101563 -2.574219 -3.683594 -2.875 -5.691407 c -0.488281 -1.808593 -0.613281 -5.40625 -0.820312 -6.261719 c -0.761719 3.019532 -1.414063 6.082032 -2.460938 9.019532 c -0.488281 3.332031 -4.710938 2.316406 -3.832031 -0.824219 c 0.511719 -2.5625 -0.320313 -0.96875 -1.292969 -0.019531 c -2.777344 -0.902344 0.316406 -5.15625 -0.109375 -7.398438 c -2.484375 0.902344 -2.867187 4.148438 -3.300781 6.464844 c -1.65625 8.335938 -2.191406 16.828125 -2.371094 25.308594 c -0.199219 6.300781 -0.105469 12.605468 -0.230469 18.90625 c -0.082031 2.042968 0.222657 4.566406 2.503907 5.261718 c 1.46875 0.578126 2.921874 1.730469 4.546874 1.503907 c 0.5625 -1.882813 -1.042968 -3.886719 -1.242187 -5.824219 c -0.800781 -6.597656 -1.699219 -13.1875 -2.4375 -19.789062 c 0.039063 -5.1875 -0.113281 -10.382813 0.046875 -15.566407 c 0.09375 -1.382812 0.1875 -2.761719 0.28125 -4.144531 l 0.527344 9.71875 c 1.390625 2.234375 3.226562 -2.402344 4.457031 -3.429688 c 2.085937 -2.855468 3.253906 -6.230468 4.957031 -9.320312 c 0.46875 -1.574219 0.738282 0.417969 1.082032 1.054688 c 0.636718 1.472656 1.015624 3.109374 1.816406 4.480468 c 1.355468 1.402344 2.621094 2.917969 4.027344 4.242188 c 2.179687 1.003906 4.21875 2.378906 6.628906 2.746094 c 1.894531 0.398437 3.769531 1.070312 5.675781 1.304687 l 10.667969 -0.941406 c 0.867187 -0.6875 1.730468 -1.375 2.59375 -2.058594 c 0.023437 -3.023437 0.226562 -6.046875 0.171875 -9.054687 c -0.359375 -3.3125 -1.085938 -6.570313 -1.851563 -9.808594 z m 0 0" fill="#bababa"/>
    <path d="m 49.296875 88.851562 c -0.632813 0.058594 -1.09375 -0.546874 -1.230469 -1.105468 c -0.785156 -2.070313 -1.398437 -4.210938 -1.828125 -6.382813 c -0.191406 -0.449219 -0.066406 -1.355469 0.609375 -1.089843 c 0.484375 0.175781 0.847656 0.570312 1.300782 0.808593 c 1.980468 1.285157 4.035156 2.5 6.273437 3.265625 c 0.4375 0.128906 1.019531 0.359375 1.015625 0.898438 c -0.152344 0.769531 -0.105469 1.554687 -0.183594 2.328125 c -0.042968 0.519531 -0.589844 0.722656 -1.042968 0.695312 c -0.515626 -0.003906 -1.1875 0.078125 -1.433594 -0.503906 c -0.238282 -0.480469 -0.238282 -1.035156 -0.414063 -1.539063 c -0.117187 -0.429687 -0.261719 -0.851562 -0.445312 -1.253906 c -0.488281 0.410156 -0.195313 1.09375 -0.324219 1.628906 c -0.078125 0.65625 -0.046875 1.320313 -0.085938 1.976563 c -0.324218 0.457031 -0.9375 0.289063 -1.410156 0.308594 c -0.265625 0.023437 -0.535156 -0.007813 -0.800781 -0.035157 z m 0 0" fill="#6b7380"/>
    <path d="m 76.761719 88.882812 c -0.5 -0.195312 -0.453125 -0.800781 -0.507813 -1.242187 c -0.097656 -0.898437 -0.160156 -1.800781 -0.273437 -2.699219 c -0.175781 -0.449218 -0.386719 0.324219 -0.4375 0.503906 c -0.253907 0.851563 -0.433594 1.71875 -0.667969 2.574219 c -0.085938 0.132813 -0.160156 0.316407 -0.351562 0.25 c -0.574219 -0.027343 -1.167969 0.019531 -1.714844 -0.171875 c -0.371094 -0.269531 -0.316406 -0.800781 -0.394532 -1.207031 c -0.074218 -0.707031 -0.128906 -1.414063 -0.210937 -2.121094 c 2.558594 -1.0625 5.152344 -2.105469 7.460937 -3.660156 c 0.460938 -0.308594 0.890626 -0.6875 1.425782 -0.863281 c 0.5 0.039062 0.292968 0.753906 0.289062 1.097656 c -0.261718 1.917969 -0.679687 3.820312 -1.308594 5.65625 c -0.230468 0.597656 -0.46875 1.230469 -0.910156 1.710938 c -0.425781 0.265624 -0.984375 0.132812 -1.46875 0.191406 c -0.308594 0 -0.621094 0.019531 -0.929687 -0.019532 z m 0 0" fill="#6b7380"/>
    <path d="m 60.808594 83.5625 c -2.828125 -0.207031 -5.980469 -1.199219 -9.027344 -2.75 c -3.152344 -1.605469 -6.09375 -4.167969 -6.523438 -5.601562 c -0.546874 -1.820313 -1.492187 -8.480469 -1.402343 -13.015626 l 0.054687 -2.847656 l 0.59375 -0.695312 c 0.597656 -0.703125 1.972656 -1.046875 2.300782 -1.046875 c 0.269531 0 0.1875 1.242187 0.1875 2.832031 c 0.003906 1.972656 0.449218 3.257812 1.628906 4.292969 c 1.253906 1.101562 2.75 1.097656 4.171875 0.261719 c 1.652343 -0.964844 2.101562 -2.382813 2.222656 -5.476563 c 0.042969 -1.125 0.144531 -2.257813 0.183594 -2.257813 c 0.035156 0 0.5625 0.328126 0.914062 0.511719 c 0.734375 0.371094 0.808594 0.371094 0.808594 -0.210937 c 0 -0.394532 -0.820313 -1.082032 -1.445313 -1.433594 c -0.449218 -0.25 0.195313 -0.984375 0.683594 -0.828125 c 0.722656 0.230469 1.117188 0.464844 1.117188 0.28125 c 0 -0.503906 -1.136719 -1.003906 -2.921875 -1.5625 c -1.378907 -0.433594 -4.070313 -0.5625 -5.921875 -0.175781 c -0.65625 0.136718 -1.28125 0.355468 -1.382813 0.269531 c -0.199219 -0.386719 0.148438 -0.808594 1.058594 -1.828125 c 0.609375 -0.683594 1.480469 -1.730469 1.800781 -2.4375 c 0.707032 -1.566406 0.660156 -1.542969 3.230469 -1.53125 l 1.21875 -0.195312 l 1.066406 1.320312 c 2.839844 3.515625 7.84375 5.269531 10.902344 5.355469 c 1.183594 0.035156 1.359375 0.46875 2.601563 0.925781 c 2.28125 0.835938 2.261718 1.15625 2.261718 1.605469 c 0 0.386719 -0.148437 0.523437 0.082032 0.433593 c 0.152343 -0.058593 0.953124 -0.484374 1.191406 -0.53125 c 0.484375 -0.097656 0.058594 0.042969 0.40625 3.160157 c 0.34375 3.101562 1.710937 4.808593 3.78125 4.796875 c 0.9375 -0.003906 1.789062 -0.425782 2.53125 -1.246094 c 0.976562 -1.085938 1.335937 -2.25 1.546875 -4.378906 c 0.15625 -1.574219 0.25 -1.929688 0.5 -1.976563 c 0.316406 -0.0625 1.75 0.308594 2.390625 1.417969 l 0.394531 0.683594 l -0.035156 2.214844 c -0.066407 3.78125 -0.488281 7.269531 -1.070313 10.457031 l -0.457031 3.140625 l -1.539063 1.789062 c -3.414062 3.972656 -9.109374 5.921875 -15.203124 6.363282 c -1.574219 0.179687 -3.332032 0.027343 -4.902344 -0.085938 z m 3.933594 -8.765625 c 1.308593 0.40625 1.832031 0.394531 2.660156 -0.453125 c 0.648437 -0.671875 0.796875 -1.046875 0.507812 -1.394531 c -0.355468 -0.429688 -0.546875 -0.21875 -1.289062 0.382812 l -0.832032 0.675781 l -0.597656 -0.40625 c -0.761718 -0.515624 -1.816406 -0.523437 -2.53125 -0.050781 c -0.644531 0.425781 -0.988281 0.398438 -1.769531 -0.273437 c -0.527344 -0.449219 -0.414063 -0.523438 -0.722656 -0.445313 c -0.902344 0.226563 -0.257813 1.667969 0.9375 2.191407 c 0.679687 0.296874 0.941406 0.394531 1.65625 -0.148438 c 0.625 -0.589844 1.183593 -0.316406 1.980469 -0.078125 z m 0 0" fill="#fee1cf"/>
    <path d="m 63.21875 95.832031 c -0.773438 -0.453125 -1.566406 -1.003906 -4.09375 -2.789062 l -2.285156 -1.613281 l 0.082031 -0.394532 c 0.097656 -0.441406 0.796875 -4.28125 0.949219 -4.945312 c 0.117187 -0.535156 0.128906 -0.597656 0.386718 -0.597656 c 0.140626 0 0.757813 0.082031 1.242188 0.167968 c 2.304688 0.425782 5.742188 0.4375 8.378906 0.015625 c 0.539063 -0.082031 1.167969 -0.199219 1.398438 -0.207031 l 0.484375 -0.019531 l 0.109375 0.417969 c 0.273437 1.023437 0.734375 3.839843 0.851562 4.910156 l 0.082032 0.785156 l -1.59375 1.046875 c -3.109376 2.039063 -5.203126 3.535156 -5.382813 3.535156 c -0.023437 0 -0.324219 -0.144531 -0.609375 -0.3125 z m 0 0" fill="#a16f7a"/>
    <path d="m 51.96875 46.691406 c -0.117188 -0.050781 -0.132812 -0.125 -0.148438 -0.371094 c -0.023437 -0.367187 0.09375 -0.664062 0.296876 -0.882812 c 0.207031 -0.21875 0.40625 -0.207031 0.652343 0.011719 c 0.296875 0.257812 0.488281 1.085937 0.292969 1.207031 c -0.332031 0.128906 -0.765625 0.179688 -1.09375 0.035156 z m 0 0" fill="#967d80"/>
    <path d="m 33.910156 122.949219 c -0.402344 -0.527344 -0.410156 -0.589844 -0.410156 -3.257813 c 0 -3.0625 0.144531 -4.617187 0.730469 -7.871094 c 1.109375 -6.1875 3.320312 -11.046874 6.375 -14.019531 c 1.914062 -1.867187 2.953125 -2.484375 7.773437 -4.613281 c 2.234375 -0.988281 2.71875 -1.378906 2.152344 -1.738281 c -0.382812 -0.242188 -1.585938 -0.171875 -1.585938 0.09375 c 0 0.453125 -0.628906 0.609375 -1.980468 0.492187 c -2.539063 -0.21875 -5.015625 -1.15625 -7.527344 -2.835937 c -0.875 -0.589844 -3.6875 -3.417969 -3.6875 -3.714844 c 0 -0.082031 -0.632812 -0.136719 -1.40625 -0.121094 c -4.917969 0.089844 -8.96875 -3.523437 -10.277344 -9.160156 c -0.957031 -4.128906 -0.90625 -9.472656 0.1875 -19.25 c 1.460938 -13.082031 3.101563 -20.152344 6.140625 -26.46875 c 4.988281 -10.375 13.789063 -17.542969 24.988281 -20.347656 c 3.1875 -0.800781 5.21875 -1.050781 8.460938 -1.050781 c 6.492188 0 13.359375 1.921874 19.007812 5.328124 c 3.773438 2.273438 7.867188 5.953126 10.417969 9.367188 c 3.140625 4.203125 5.578125 9.304688 7.152344 14.988281 c 2.351563 8.480469 4.417969 27.4375 3.71875 34.121094 c -0.480469 4.621094 -1.6875 7.539063 -4.054687 9.828125 c -1.804688 1.746094 -4.058594 2.632812 -6.679688 2.632812 h -1.429688 l -0.304687 0.523438 c -0.550781 0.941406 -2.390625 2.714844 -3.789063 3.648438 c -1.589843 1.066406 -3.480468 1.820312 -5.628906 2.253906 c -2.402344 0.480468 -2.808594 0.476562 -3.34375 -0.035156 c -0.65625 -0.625 -2.128906 -0.601563 -2.128906 0.035156 c 0 0.308594 0.277344 0.457031 3.347656 1.796875 c 4.015625 1.75 5.773438 2.882812 7.671875 4.933593 c 1.082031 1.167969 2.347657 3.175782 3.253907 5.171876 c 1.855468 4.058593 3.265624 11.230468 3.265624 16.574218 v 2.042969 l -0.609374 0.59375 l -0.609376 0.597656 h -58.78125 z m 9.453125 -1.839844 c 0.164063 -0.183594 0.226563 -0.433594 0.164063 -0.683594 c -0.089844 -0.367187 -0.046875 -0.347656 0.535156 0.207031 l 0.632812 0.601563 h 38.109376 l 0.6875 -0.675781 l 0.691406 -0.679688 v 0.582032 c 0 0.378906 0.085937 0.613281 0.253906 0.675781 c 0.140625 0.054687 1.890625 0.097656 3.886719 0.097656 h 3.632812 l -0.097656 -2.9375 c -0.109375 -3.347656 -0.445313 -5.511719 -1.429687 -9.289063 c -1.441407 -5.523437 -3.640626 -9.011718 -7.058594 -11.210937 c -1.8125 -1.164063 -3.167969 -1.769531 -3.5 -1.5625 c -0.152344 0.09375 -1.859375 2.167969 -3.796875 4.609375 l -3.523438 4.441406 l -1.304687 -0.996094 c -0.714844 -0.542968 -1.914063 -1.410156 -2.664063 -1.921874 c -1.113281 -0.757813 -1.398437 -0.890626 -1.566406 -0.71875 c -0.195313 0.191406 0.0625 1.300781 0.84375 3.625 c 0.097656 0.292968 -1.570313 1.0625 -1.714844 0.792968 c -0.058593 -0.109375 -0.566406 -1.539062 -1.128906 -3.175781 c -0.867187 -2.53125 -1.023437 -2.777344 -1.246094 -2.679687 c -0.222656 0.097656 -0.988281 2.355468 -1.234375 3.082031 c -0.511718 1.503906 -0.976562 2.792969 -1.035156 2.859375 c -0.082031 0.09375 -1.472656 -0.386719 -1.734375 -0.597656 c -0.019531 -0.019532 0.214844 -0.78125 0.523437 -1.699219 c 0.660157 -1.953125 0.671876 -2.089844 0.226563 -2.089844 c -0.285156 0 -2.980469 1.726563 -4.820313 3.089844 c -0.445312 0.328125 -0.523437 0.339843 -0.6875 0.117187 c -0.765624 -1.019531 -6.742187 -8.339844 -7.015624 -8.585937 c -0.335938 -0.304688 -0.363282 -0.304688 -1.183594 -0.019531 c -2.050782 0.71875 -4.511719 2.578124 -5.976563 4.511718 c -1.648437 2.1875 -2.671875 4.417969 -3.539062 7.707032 c -0.921875 3.488281 -1.363281 6.355468 -1.628907 10.5 c -0.164062 2.53125 -0.527343 2.308593 3.773438 2.308593 c 3.316406 0 3.691406 -0.027343 3.925781 -0.285156 z m 15.597657 -20.941406 c 3.148437 -2.304688 3.183593 -2.375 1.8125 -3.285157 c -0.484376 -0.324218 -1.96875 -1.382812 -3.300782 -2.359374 c -1.328125 -0.972657 -2.554687 -1.769532 -2.722656 -1.769532 c -0.332031 0 -4.132812 1.972656 -4.503906 2.339844 c -0.199219 0.191406 -0.066406 0.441406 0.964844 1.796875 c 0.65625 0.867187 1.90625 2.433594 2.777343 3.480469 c 1.28125 1.542968 1.652344 1.894531 1.933594 1.839844 c 0.1875 -0.039063 1.558594 -0.957032 3.039063 -2.042969 z m 14.222656 0.902343 c 1.1875 -1.390624 3.554687 -4.335937 4.046875 -5.042968 c 0.640625 -0.910156 0.558593 -1 -1.972657 -2.207032 c -1.347656 -0.644531 -2.449218 -1.074218 -2.625 -1.027343 c -0.539062 0.140625 -6.644531 4.835937 -6.597656 5.070312 c 0.058594 0.289063 5.597656 4.371094 5.917969 4.367188 c 0.132813 -0.003907 0.6875 -0.523438 1.230469 -1.160157 z m -5.765625 -7.210937 l 3.25 -2.277344 l -0.003907 -0.820312 c 0 -0.921875 -0.734374 -5.085938 -0.929687 -5.28125 c -0.070313 -0.066407 -0.882813 0.019531 -1.808594 0.195312 c -2.269531 0.433594 -6.367187 0.4375 -8.402343 0.011719 c -0.878907 -0.179688 -1.449219 -0.234375 -1.507813 -0.136719 c -0.101563 0.160157 -1.195313 5.800781 -1.136719 5.855469 c 0.015625 0.015625 1.507813 1.085938 3.3125 2.378906 c 1.820313 1.304688 3.433594 2.347656 3.628906 2.347656 c 0.191407 0 1.8125 -1.023437 3.597657 -2.273437 z m 15.742187 -4.660156 c 1.464844 -0.445313 3.484375 -1.523438 4.753906 -2.542969 c 3.011719 -2.414062 5.070313 -6.839844 5.960938 -12.808594 c 0.320312 -2.148437 0.371094 -2.34375 0.488281 -1.769531 c 0.074219 0.355469 0.175781 2.109375 0.226563 3.898437 c 0.101562 3.613282 0.273437 4.332032 0.734375 3.078126 c 1.074219 -2.925782 1.328125 -7.566407 1.210937 -21.988282 c -0.046875 -5.691406 -0.066406 -10.324218 -0.042968 -10.296875 c 0.222656 0.257813 1.113281 5.675781 1.433593 8.734375 c 0.355469 3.386719 0.394531 4.347656 0.320313 7.804688 c -0.042969 2.167968 -0.183594 4.59375 -0.308594 5.390625 s -0.339844 2.898437 -0.480469 4.667969 c -0.308593 3.949218 -0.628906 6.070312 -1.15625 7.617187 c -0.492187 1.449219 -0.378906 1.667969 0.628907 1.222656 c 1.230468 -0.542969 2.484374 -1.90625 3.351562 -3.628906 c 0.425781 -0.847656 0.886719 -1.972656 1.023438 -2.492187 c 0.902343 -3.496094 0.832031 -9.617188 -0.222657 -18.730469 c -1.644531 -14.214844 -3.253906 -21.019531 -6.371093 -26.949219 c -1.925782 -3.667969 -4.765626 -7.335938 -7.71875 -9.980469 c -1.757813 -1.570312 -5.300782 -4.054687 -6.988282 -4.898437 c -2.894531 -1.449219 -6.796875 -2.785156 -10.121094 -3.460938 c -1.835937 -0.375 -2.332031 -0.40625 -6.195312 -0.40625 c -4.035156 0.003906 -4.285156 0.023438 -6.300781 0.46875 c -4.15625 0.917969 -8.472657 2.550782 -11.402344 4.308594 c -1.539063 0.921875 -4.394531 3.101562 -5.839844 4.457031 c -2.652343 2.480469 -5.660156 6.503907 -7.273437 9.71875 c -1.992188 3.972657 -3.128906 7.476563 -4.191406 12.90625 c -1.828126 9.363281 -3.082032 21.488281 -2.84375 27.464844 c 0.21875 5.386719 1.367187 8.503906 3.859374 10.488281 c 1.636719 1.300782 2.230469 1.078125 1.636719 -0.613281 c -0.328125 -0.929687 -0.683593 -3.621094 -0.894531 -6.769531 c -0.097656 -1.460938 -0.316406 -3.34375 -0.484375 -4.183594 c -0.707031 -3.511719 -0.765625 -7.121094 -0.222656 -12.953125 c 0.304687 -3.253906 0.628906 -5.632813 1.082031 -7.882813 l 0.351562 -1.769531 l 0.101563 7.882813 c 0.050781 4.335937 0.105469 10.671875 0.117187 14.078125 l 0.023438 6.191406 l 0.585938 2.121094 c 0.433593 1.574219 0.640624 2.097656 0.804687 2.035156 c 0.171875 -0.066406 0.222656 -0.617187 0.230469 -2.519531 c 0.011718 -2.050782 0.386718 -6.019532 0.449218 -4.765625 c 0.046876 0.910156 0.878907 4.84375 1.339844 6.351562 c 1.558594 5.066407 4.636719 8.589844 8.894532 10.171875 c 1.425781 0.53125 2.339843 0.59375 2.339843 0.160156 c 0 -0.101562 -0.289062 -1.097656 -0.640625 -2.214843 c -1.117187 -3.539063 -2.402344 -10.714844 -3.132812 -17.511719 c -0.34375 -3.171875 -0.351563 -17.933594 -0.011719 -22.144531 c 0.128906 -1.589844 0.238281 -2.988281 0.238281 -3.105469 c 0.003906 -0.117188 0.066406 -0.171875 0.144532 -0.125 c 0.074218 0.046875 0.183593 1.953125 0.238281 4.234375 c 0.109375 4.472656 0.226562 5.546875 0.65625 5.96875 c 0.257812 0.253906 0.363281 0.179687 1.722656 -1.257813 c 1.480469 -1.5625 3.359375 -4.191406 3.359375 -4.699218 c 0 -0.15625 0.273438 -0.738282 0.609375 -1.292969 c 1.386719 -2.28125 2.5625 -5.894531 3.09375 -9.496094 c 0.117187 -0.777343 0.230469 -1.390625 0.253906 -1.363281 c 0.027344 0.023438 0.234375 1.164062 0.464844 2.535156 c 0.445313 2.644532 1.15625 5.214844 1.792969 6.472656 c 1.082031 2.136719 3.660156 4.945313 5.625 6.121094 c 1.292968 0.773438 3.15625 1.5625 3.699218 1.5625 c 0.425782 0 0.433594 -0.015625 0.332032 -0.804687 c -0.058594 -0.445313 -0.148438 -1.1875 -0.199219 -1.652344 l -0.097656 -0.84375 l 1.296875 1.386719 c 2.007812 2.148437 4.65625 4.003906 5.714844 4.003906 c 0.394531 0 0.394531 0 -0.496094 -2.210938 c -0.492188 -1.21875 -1.101563 -3.097656 -1.359375 -4.179687 c -0.421875 -1.785156 -1.148438 -6.324219 -1.03125 -6.445313 c 0.027343 -0.027343 0.21875 0.371094 0.421875 0.882813 c 1.132812 2.8125 3.976562 6.441406 6.425781 8.203125 c 1.238281 0.890625 3.765625 2.214844 4.886719 2.5625 c 0.910156 0.28125 0.949218 0.28125 1.15625 -0.003906 c 0.1875 -0.257813 0.171875 -0.390625 -0.121094 -0.960938 c -0.410156 -0.8125 -1.28125 -3.34375 -1.179688 -3.445312 c 0.039063 -0.042969 0.417969 0.210937 0.84375 0.5625 c 1.089844 0.90625 2.96875 1.976562 3.457032 1.976562 c 0.578125 0 0.640625 -0.378906 0.753906 -4.824218 c 0.085938 -3.203126 0.117188 -3.585938 0.226562 -2.496094 c 0.796876 8.246094 0.746094 21.308594 -0.109374 27.835937 c -0.960938 7.289063 -1.777344 11.664063 -2.765626 14.761719 c -0.546874 1.722656 -0.679687 2.535156 -0.40625 2.535156 c 0.078126 0 0.640626 -0.148437 1.246094 -0.335937 z m -31.742187 -0.667969 c 0.054687 -0.199219 0.097656 -0.722656 0.101562 -1.167969 c 0.003907 -1.164062 0.183594 -2.492187 0.339844 -2.492187 c 0.136719 0 0.691406 1.664062 0.871094 2.621094 c 0.117187 0.628906 0.359375 0.75 1.480469 0.753906 c 0.855468 0.003906 0.960937 -0.179688 1.132812 -2 c 0.152344 -1.582032 0.230469 -1.464844 -1.25 -1.9375 c -1.371094 -0.4375 -4.460938 -2.066406 -5.964844 -3.136719 c -1.445312 -1.03125 -1.667968 -1.117187 -1.824218 -0.707031 c -0.265626 0.695312 1.546874 7.375 2.1875 8.058594 c 0.304687 0.324218 0.5 0.371093 1.589843 0.371093 c 1.148438 0 1.246094 -0.027343 1.335938 -0.363281 z m 27.8125 0.082031 c 0.664062 -0.757812 1.46875 -3.265625 1.984375 -6.199219 c 0.4375 -2.488281 0.277344 -2.644531 -1.414063 -1.359374 c -1.296875 0.984374 -3.949219 2.359374 -6.132812 3.175781 l -1.425781 0.535156 l 0.105468 1.140625 c 0.191406 2.09375 0.207032 2.132812 0.867188 2.242188 c 0.324218 0.054687 0.816406 0.097656 1.09375 0.097656 c 0.503906 0.003906 0.507812 0 0.867187 -1.484375 c 0.378907 -1.554688 0.605469 -2.144531 0.757813 -1.988281 c 0.050781 0.050781 0.152344 0.796874 0.222656 1.65625 c 0.222656 2.625 0.117188 2.464843 1.578125 2.464843 c 0.988281 0 1.300781 -0.058593 1.496094 -0.28125 z m -10.574219 -5.425781 c 5.476562 -1.03125 10.230469 -3.5625 13.085938 -6.972656 l 0.65625 -0.785156 l 0.484374 -3.125 c 0.464844 -3.011719 0.847657 -6.851563 1.074219 -10.804688 l 0.109375 -1.894531 l -0.773437 -0.679688 c -0.953125 -0.84375 -1.597657 -1.25 -1.988281 -1.25 c -0.367188 0 -0.5 0.566407 -0.5 2.105469 c 0 2.339844 -1.382813 4.753906 -3.070313 5.351562 c -1.703125 0.605469 -3.273437 -0.167968 -4.222656 -2.082031 c -0.511719 -1.035156 -0.582031 -1.34375 -0.757813 -3.378906 c -0.105468 -1.230469 -0.222656 -2.269531 -0.261718 -2.3125 c -0.039063 -0.039063 -0.386719 0.039063 -0.773438 0.175781 l -0.699219 0.253906 l 0.078125 -0.5 c 0.078125 -0.480468 0.046875 -0.507812 -0.941406 -0.886718 c -0.558594 -0.214844 -1.457031 -0.65625 -1.996094 -0.988282 c -0.925781 -0.566406 -1.027344 -0.589843 -1.929687 -0.488281 c -1.285157 0.144531 -3.65625 -0.484375 -5.699219 -1.511719 c -1.75 -0.878906 -4.582031 -3.128906 -5.574219 -4.433593 c -0.5625 -0.742188 -0.667969 -0.808594 -1.105469 -0.71875 c -0.265624 0.054687 -1.078124 0.140625 -1.808593 0.195312 l -1.324219 0.097657 l -0.910156 1.464843 c -0.5 0.804688 -1.335938 1.941407 -1.851563 2.523438 c -1 1.125 -1.226562 1.714843 -0.582031 1.527343 c 0.199219 -0.058593 1.757812 -0.519531 3.175781 -0.570312 c 2.410157 -0.085938 2.699219 0.054688 4.066407 0.433594 c 1.246093 0.34375 2.589843 1.160156 2.589843 1.308594 c 0 0.019531 0.332031 0.449218 -0.035156 0.460937 c -0.769531 0.03125 -1.4375 -0.890625 -1.765625 0.171875 c -0.109375 0.347656 0.746094 0.375 1.152344 0.863281 c 0.554687 0.664063 0.417968 1.300781 0.160156 1.308594 c -0.332031 0.007813 -1.339844 -0.699219 -1.371094 -0.679687 l -0.15625 0.089843 l -0.007812 0.828125 c -0.003906 0.527344 0.046875 1.65625 -0.058594 2.398438 c -0.339844 2.328125 -1.121094 3.769531 -2.636719 4.535156 c -1.5 0.757812 -3 0.457031 -4.199219 -0.800781 c -1.289062 -1.355469 -1.433593 -3.09375 -1.433593 -5.460938 c 0 -1.265625 -0.007813 -1.28125 -0.414063 -1.28125 c -0.480468 0 -2.234375 1.144531 -2.492187 1.625 c -0.328125 0.613281 0.207031 8.460938 0.90625 13.257813 c 0.453125 3.125 0.542969 3.316406 2.3125 4.945312 c 3.042969 2.800782 7.191406 4.792969 11.996093 5.761719 c 2.3125 0.464844 6.796876 0.429687 9.492188 -0.078125 z m 5.832031 -29.292969 c 0.792969 -0.160156 0.664063 -0.578125 -0.46875 -1.523437 c -0.847656 -0.707032 -1.019531 -0.792969 -1.214843 -0.601563 c -0.191407 0.195313 -0.164063 0.378907 0.207031 1.300781 c 0.324219 0.8125 0.492187 1.058594 0.691406 1.003907 c 0.144531 -0.039063 0.5 -0.121094 0.785156 -0.179688 z m -21.359375 -7.472656 c 0 -0.523437 -0.355468 -1.132813 -0.664062 -1.132813 c -0.34375 0 -0.625 0.460938 -0.625 1.035157 c 0 0.375 0.0625 0.410156 0.644531 0.410156 c 0.53125 0 0.644531 -0.054687 0.644531 -0.3125 z m 0 0"/>
    <path d="m 73.390625 53.984375 c -0.144531 -0.15625 -0.554687 -0.855469 -0.761719 -1.484375 c -0.109375 -0.328125 -0.003906 -0.542969 0.074219 -0.675781 c 0.148437 -0.265625 0.441406 -0.199219 1.003906 0.238281 c 0.585938 0.453125 1.242188 1.160156 1.304688 1.363281 c 0.070312 0.214844 -0.054688 0.453125 -0.617188 0.574219 c -0.265625 0.054688 -0.664062 0.03125 -0.703125 0.042969 c -0.039062 0.015625 -0.222656 0.023437 -0.300781 -0.058594 z m 0 0" fill="#967d80"/>
    <path d="m 54.539062 60.964844 c -0.082031 2.410156 -1.746093 4.242187 -3.714843 4.09375 c -1.972657 -0.148438 -3.503907 -2.222656 -3.421875 -4.632813 c 0.082031 -2.410156 1.746094 -4.242187 3.714844 -4.09375 c 1.96875 0.152344 3.5 2.222657 3.421874 4.632813 z m 0 0" fill="url(#d)"/>
    <path d="m 80.210938 60.53125 c -0.078126 2.363281 -1.714844 4.164062 -3.648438 4.015625 c -1.933594 -0.144531 -3.4375 -2.179687 -3.359375 -4.542969 c 0.082031 -2.363281 1.714844 -4.164062 3.648437 -4.015625 c 1.9375 0.144531 3.441407 2.179688 3.359376 4.542969 z m 0 0" fill="url(#e)"/>
    <path d="m 60.609375 74.878906 c -0.914063 -0.265625 -1.574219 -2.347656 -0.15625 -2.085937 c 0.617187 0.566406 1.34375 1.46875 2.222656 0.699219 c 0.804688 -0.546876 1.878907 -0.390626 2.617188 0.1875 c 1.058593 0.730468 1.316406 -1.0625 2.285156 -1.039063 c 1.140625 0.417969 0.207031 1.707031 -0.46875 2.105469 c -0.847656 0.761718 -2.128906 0.488281 -3.039063 -0.007813 c -0.835937 -0.207031 -1.488281 0.65625 -2.335937 0.515625 c -0.402344 -0.011718 -0.800781 -0.136718 -1.125 -0.375 z m 0 0"/>
    <g fill="#d66a49">
        <path d="m 52.710938 68.859375 l -0.226563 -0.144531 l 0.011719 -0.121094 c 0.003906 -0.066406 0.03125 -0.292969 0.054687 -0.507812 l 0.042969 -0.386719 h 0.347656 c 0.34375 0 0.347656 0 0.359375 0.046875 c 0.03125 0.148437 0.089844 0.640625 0.078125 0.664062 c -0.011718 0.019532 -0.429687 0.582032 -0.4375 0.589844 c 0 0 -0.105468 -0.0625 -0.230468 -0.140625 z m 0 0"/>
        <path d="m 50.273438 68.488281 l -0.113282 -0.355469 l 0.242188 -0.347656 c 0.136718 -0.191406 0.25 -0.347656 0.257812 -0.347656 c 0.011719 0 0.332032 0.382812 0.394532 0.46875 c 0.023437 0.03125 0.019531 0.097656 -0.027344 0.4375 l -0.058594 0.398438 l -0.273438 0.050781 c -0.152343 0.027343 -0.285156 0.050781 -0.292968 0.050781 c -0.007813 0 -0.066406 -0.160156 -0.128906 -0.355469 z m 0 0"/>
        <path d="m 48.351562 68.921875 c -0.042968 -0.054687 -0.167968 -0.234375 -0.28125 -0.394531 l -0.203124 -0.292969 l 0.234374 -0.355469 l 0.230469 -0.359375 h 0.496094 v 1.378907 l -0.179687 0.054687 c -0.09375 0.035156 -0.183594 0.0625 -0.199219 0.066406 c -0.011719 0.007813 -0.058594 -0.039062 -0.097657 -0.09375 z m 0 0"/>
        <path d="m 46.050781 68.75 c -0.007812 -0.042969 -0.058593 -0.234375 -0.105469 -0.429688 l -0.089843 -0.351562 l 0.226562 -0.359375 l 0.324219 -0.007813 l 0.320312 -0.003906 l 0.085938 0.21875 l 0.082031 0.222656 l -0.144531 0.390626 l -0.144531 0.394531 h -0.53125 z m 0 0"/>
        <path d="m 81.050781 68.648438 l -0.277343 -0.3125 l 0.191406 -0.367188 c 0.1875 -0.367188 0.191406 -0.367188 0.390625 -0.332031 c 0.308593 0.054687 0.398437 0.121093 0.398437 0.296875 c 0 0.089844 0.015625 0.3125 0.035156 0.5 l 0.035157 0.339844 l -0.234375 0.097656 c -0.132813 0.050781 -0.242188 0.089844 -0.25 0.089844 c -0.007813 0 -0.136719 -0.144532 -0.289063 -0.3125 z m 0 0"/>
        <path d="m 78.914062 68.59375 l -0.253906 -0.371094 l 0.253906 -0.367187 c 0.136719 -0.203125 0.269532 -0.371094 0.289063 -0.371094 c 0.023437 0 0.132813 0.078125 0.242187 0.175781 c 0.195313 0.171875 0.203126 0.191406 0.203126 0.566406 c 0 0.378907 -0.003907 0.390626 -0.210938 0.5625 c -0.117188 0.097657 -0.226562 0.175782 -0.242188 0.175782 c -0.019531 0 -0.144531 -0.167969 -0.28125 -0.371094 z m 0 0"/>
        <path d="m 76.667969 68.636719 l -0.195313 -0.386719 l 0.191406 -0.414062 c 0.171876 -0.375 0.207032 -0.414063 0.339844 -0.398438 c 0.113282 0.015625 0.191406 0.09375 0.324219 0.339844 l 0.179687 0.324218 l -0.167968 0.445313 c -0.148438 0.390625 -0.1875 0.449219 -0.320313 0.464844 c -0.140625 0.015625 -0.171875 -0.023438 -0.351562 -0.375 z m 0 0"/>
        <path d="m 74.515625 68.722656 c -0.175781 -0.21875 -0.191406 -0.261718 -0.144531 -0.441406 c 0.160156 -0.636719 0.15625 -0.625 0.363281 -0.710938 c 0.113281 -0.046874 0.226563 -0.085937 0.25 -0.085937 s 0.085937 0.175781 0.140625 0.394531 c 0.121094 0.5 0.046875 0.996094 -0.160156 1.050782 c -0.214844 0.058593 -0.246094 0.042968 -0.449219 -0.207032 z m 0 0"/>
    </g>
</svg>
